<?xml version="1.0" encoding="UTF-8"?>
<svg width="73px" height="66px" viewBox="0 0 73 66" version="1.1" xmlns="http://www.w3.org/2000/svg" xmlns:xlink="http://www.w3.org/1999/xlink">
    <!-- Generator: Sketch 53.1 (72631) - https://sketchapp.com -->
    <title>all</title>
    <desc>Created with Sketch.</desc>
    <g id="Page-1" stroke="none" stroke-width="1" fill="none" fill-rule="evenodd">
        <g id="Million-all-services" transform="translate(-610.000000, -935.000000)" stroke="#000000">
            <g id="all" transform="translate(611.000000, 936.000000)">
                <g id="on" transform="translate(12.000000, 30.000000)" stroke-width="0.9">
                    <path d="M17.0139535,9.11489362 C17.0139535,7.19787234 17.05,5.31702128 17.0139535,3.4 C17.0139535,2.45957447 17.7709302,1.59148936 18.6360465,1.51914894 C19.7534884,1.37446809 20.6546512,1.9893617 20.8709302,3.00212766 C20.9430233,3.29148936 21.0151163,3.32765957 21.2313953,3.14680851 C22.1686047,2.38723404 23.2139535,1.80851064 24.4395349,1.59148936 C26.7825581,1.15744681 29.377907,2.17021277 30.3511628,4.34042553 C30.6755814,5.02765957 30.8197674,5.78723404 30.8197674,6.54680851 C30.8197674,9.29574468 30.8197674,12.0808511 30.8197674,14.8297872 C30.8197674,15.8787234 29.9546512,16.7106383 28.9453488,16.7468085 C27.8639535,16.8191489 26.9267442,15.9148936 26.9267442,14.8297872 C26.9267442,13.3829787 26.9267442,11.9 26.9267442,10.4531915 C26.9267442,9.36808511 26.9267442,8.31914894 26.7825581,7.23404255 C26.5302326,4.84680851 24.2232558,4.37659574 22.7093023,5.31702128 C21.555814,6.04042553 21.0872093,7.16170213 20.9790698,8.5 C20.8348837,10.5978723 20.9069767,12.6595745 20.9069767,14.7212766 C20.9069767,15.7340426 20.2581395,16.5297872 19.3569767,16.7106383 C18.3837209,16.8914894 17.4825581,16.3851064 17.122093,15.4808511 C17.05,15.2638298 17.0139535,15.0468085 17.0139535,14.793617 C17.0139535,12.912766 17.0139535,10.9957447 17.0139535,9.11489362 Z" id="Path"></path>
                    <path d="M15.644186,9.58510638 C15.5,12.1893617 14.1302326,14.6851064 11.1383721,16.0595745 C8.57906977,17.2531915 5.98372093,17.1446809 3.60465116,15.5531915 C1.51395349,14.1787234 0.288372093,12.2255319 0.108139535,9.69361702 C9.57567359e-16,8.10212766 0.252325581,6.61914894 0.973255814,5.20851064 C1.62209302,4.01489362 2.88372093,3.65319149 3.85697674,4.44893617 C4.46976744,4.95531915 4.72209302,5.85957447 4.36162791,6.58297872 C3.92906977,7.48723404 3.7127907,8.42765957 3.78488372,9.40425532 C3.85697674,11.1042553 4.9744186,12.6234043 6.59651163,13.1297872 C8.90348837,13.8170213 11.1383721,12.4787234 11.6790698,10.2361702 C11.9674419,9.00638298 11.8593023,7.81276596 11.3186047,6.69148936 C10.8860465,5.78723404 11.2104651,4.77446809 12.1116279,4.26808511 C12.9406977,3.79787234 13.9860465,4.08723404 14.5267442,4.91914894 C15.2837209,6.14893617 15.644186,7.48723404 15.644186,9.58510638 Z" id="Path"></path>
                    <path d="M10.1290698,3.58085106 C9.15581395,3.58085106 8.3627907,2.78510638 8.3627907,1.80851064 C8.3627907,0.831914894 9.19186047,0.0361702128 10.1290698,0.0361702128 C11.1383721,0.0361702128 11.8953488,0.831914894 11.9313953,1.80851064 C11.9674419,2.74893617 11.0662791,3.6893617 10.1290698,3.58085106 Z" id="Path"></path>
                    <path d="M7.31744186,1.84468085 C7.31744186,2.85744681 6.56046512,3.61702128 5.55116279,3.61702128 C4.57790698,3.61702128 3.82093023,2.85744681 3.78488372,1.91702128 C3.7127907,1.04893617 4.54186047,0.0723404255 5.55116279,0.0723404255 C6.59651163,0.0361702128 7.4255814,1.01276596 7.31744186,1.84468085 Z" id="Path"></path>
                </g>
                <g fill-rule="nonzero">
                    <g id="pay-per-click" transform="translate(0.000000, 13.000000)">
                        <g id="Group">
                            <path d="M-9.09494702e-13,48 L-9.09494702e-13,3 C-9.09697608e-13,1.34314575 1.34314575,-2.7673261e-14 3,-2.79776202e-14 L53,-2.79776202e-14 C54.6568542,-2.82819794e-14 56,1.34314575 56,3 L56,48 C56,49.6568542 54.6568542,51 53,51 L3,51 C1.34314575,51 -9.09291796e-13,49.6568542 -9.09494702e-13,48 Z" id="Shape"></path>
                        </g>
                    </g>
                    <g id="add-icon-input" transform="translate(55.000000, 0.000000)" stroke-linecap="round" stroke-width="0.99">
                        <path d="M4,0 L4,7.93011475" id="Path-3"></path>
                        <path d="M3.9905216,0.390343161 L3.9905216,7.85398057" id="Path-3-Copy" transform="translate(3.990522, 4.122162) rotate(-270.000000) translate(-3.990522, -4.122162) "></path>
                    </g>
                    <g id="add-icon-input-copy" transform="translate(65.000000, 13.000000)" stroke-linecap="round" stroke-width="0.88">
                        <path d="M3,0 L3,5.94758606" id="Path-3"></path>
                        <path d="M2.9928912,0.292757371 L2.9928912,5.89048543" id="Path-3-Copy" transform="translate(2.992891, 3.091621) rotate(-270.000000) translate(-2.992891, -3.091621) "></path>
                    </g>
                </g>
            </g>
        </g>
    </g>
</svg>