<?xml version="1.0" encoding="UTF-8"?>
<svg width="87px" height="25px" viewBox="0 0 87 25" version="1.1" xmlns="http://www.w3.org/2000/svg" xmlns:xlink="http://www.w3.org/1999/xlink">
    <!-- Generator: Sketch 53.1 (72631) - https://sketchapp.com -->
    <title>app store</title>
    <desc>Created with Sketch.</desc>
    <g id="Symbols" stroke="none" stroke-width="1" fill="none" fill-rule="evenodd">
        <g id="footer" transform="translate(-79.000000, -384.000000)">
            <g id="app-store" transform="translate(80.000000, 385.000000)">
                <g id="Group-4" transform="translate(10.000000, 3.000000)" fill="#FFFFFF">
                    <path d="M12.495,5.48900901 C11.2992857,6.24792793 10.7092857,7.31243243 10.8035714,8.73225225 C10.8978571,10.1520721 11.6671429,11.1106306 12.9035714,11.7398198 C12.8407143,11.9156757 12.7828571,12.0893694 12.7178571,12.2601802 C12.4296904,13.0018817 12.0453937,13.7017864 11.575,14.3416216 C11.3492245,14.6721781 11.0956697,14.9825126 10.8171429,15.2691892 C10.6506056,15.4359689 10.4641778,15.5812255 10.2621429,15.7016216 C9.83357143,15.9488288 9.37714286,15.9899099 8.90142857,15.8854054 C8.56428571,15.8133333 8.25071429,15.6727928 7.93071429,15.5517117 C7.55087906,15.3988675 7.14534792,15.3215336 6.73642857,15.323964 C6.37523715,15.3367132 6.0183731,15.4075125 5.67928571,15.5336937 C5.42714286,15.6230631 5.17928571,15.7232432 4.92785714,15.8140541 C4.63667144,15.92366 4.32591147,15.9703134 4.01571429,15.950991 C3.74830257,15.9258127 3.49165836,15.8323007 3.27,15.6792793 C2.9291629,15.4511433 2.62675794,15.1693732 2.37428571,14.8446847 C1.96095287,14.3417624 1.59283203,13.802696 1.27428571,13.2338739 C0.941983666,12.6182233 0.673193893,11.9697795 0.472142857,11.2987387 C0.327570627,10.8240871 0.218690283,10.3391075 0.146428571,9.84792793 C0.0944331379,9.43541127 0.0705675008,9.01977937 0.075,8.60396396 C0.0631334076,8.02780745 0.142217722,7.45341656 0.309285714,6.90234234 C0.685714286,5.70882883 1.38857143,4.78918919 2.53142857,4.25513514 C2.92934537,4.07401252 3.35646917,3.96706315 3.79214286,3.93945946 C4.34642857,3.89621622 4.85571429,4.0627027 5.36357143,4.24504505 C5.66785714,4.35459459 5.97357143,4.46126126 6.27785714,4.57153153 C6.4783314,4.64250611 6.69744788,4.63815594 6.895,4.55927928 C7.31404762,4.40648649 7.73452381,4.25801802 8.15642857,4.11387387 C8.61588709,3.94450444 9.10426605,3.8695217 9.59285714,3.89333333 C10.0943922,3.9241115 10.5865401,4.0444136 11.0464286,4.24864865 C11.4331705,4.42165084 11.7844443,4.66609116 12.0821429,4.96936937 C12.2405275,5.12469098 12.3792054,5.2992369 12.495,5.48900901 Z" id="Path"></path>
                    <path d="M6.46785714,3.7427027 C6.4366053,3.56330113 6.43083307,3.38032309 6.45071429,3.19927928 C6.50142857,2.49441441 6.79357143,1.89117117 7.22857143,1.34990991 C7.73857143,0.717117117 8.40285714,0.333693694 9.17428571,0.127567568 C9.31714286,0.0900900901 9.46,0.0475675676 9.61928571,0.0872072072 C9.62572296,0.110861998 9.63049674,0.134945918 9.63357143,0.159279279 C9.68059191,0.935796826 9.46336461,1.70523036 9.01785714,2.34018018 C8.73226553,2.77519027 8.35493736,3.14115137 7.91285714,3.41189189 C7.47696143,3.6709904 6.97189021,3.78661879 6.46785714,3.7427027 L6.46785714,3.7427027 Z" id="Path"></path>
                </g>
                <g id="Group-3" transform="translate(28.000000, 9.000000)" fill="#FFFFFF">
                    <path d="M18.7097959,4.53717718 C18.3652653,3.5963964 17.5710612,2.96792793 16.505551,3.02654655 C15.8268163,3.06402402 15.2691837,3.3427027 14.858,3.90678679 C14.8223265,3.9557958 14.7866531,4.00288288 14.7256327,4.0836036 C14.7059184,3.74534535 14.6890204,3.44744745 14.6711837,3.14474474 L13.8009388,3.14474474 C13.8722857,5.73069069 13.8131429,8.29933934 13.8403673,10.8814414 L14.8044898,10.8814414 L14.8044898,9.09501502 C14.8044898,8.90282282 14.8044898,8.7039039 14.8044898,8.50786787 C14.8044898,8.31183183 14.8044898,8.12348348 14.8091837,7.88996997 C14.8636327,7.95723724 14.8889796,7.98606607 14.9105714,8.01393393 C15.1508698,8.33953589 15.4932821,8.57060405 15.8803265,8.66834835 C16.8923265,8.94414414 18.107102,8.54630631 18.6365714,7.323003 C19.0272892,6.44257003 19.0536981,5.43784282 18.7097959,4.53717718 L18.7097959,4.53717718 Z M17.7944898,6.85885886 C17.6151837,7.35855856 17.3072653,7.73333333 16.7928163,7.89285285 C16.0151216,8.15593146 15.1749008,7.73273249 14.904,6.9415015 C14.8507493,6.74784144 14.8192532,6.54859554 14.8101224,6.34762763 C14.8030762,6.2090227 14.8030762,6.07013646 14.8101224,5.93153153 C14.8101224,5.62882883 14.795102,5.32516517 14.8852245,5.03111111 C15.0729796,4.40264264 15.464449,3.97405405 16.1103265,3.85393393 C16.6867347,3.74438438 17.1673878,3.94234234 17.5316327,4.41417417 C17.7674111,4.73381073 17.9085054,5.11606285 17.9381224,5.51543544 C17.9928207,5.96858461 17.9436436,6.4285469 17.7944898,6.85885886 L17.7944898,6.85885886 Z" id="Shape" fill-rule="nonzero"></path>
                    <path d="M12.595551,5.36744745 C12.5528008,4.9447902 12.424942,4.53578892 12.2200408,4.16624625 C11.3695102,2.61717718 9.29481633,2.7248048 8.49779592,3.96252252 C8.46873916,4.00128864 8.43738782,4.03819472 8.40391837,4.07303303 C8.38702041,3.74534535 8.372,3.45129129 8.35697959,3.15243243 L7.48579592,3.15243243 C7.55902041,5.73453453 7.50081633,8.30318318 7.52804082,10.8824024 L8.49591837,10.8824024 L8.49591837,7.94186186 L8.53628571,7.93129129 C8.70350874,8.18357492 8.93145966,8.38745601 9.19812245,8.52324324 C9.5989957,8.72771748 10.0523399,8.79861986 10.4945714,8.72600601 C11.4211429,8.58858859 12.0416735,8.04756757 12.3871429,7.17021021 C12.5995511,6.59576778 12.67111,5.97677234 12.595551,5.36744745 L12.595551,5.36744745 Z M11.5,6.78870871 C11.4514606,6.94500584 11.3846354,7.09472118 11.3009796,7.23459459 C10.9545714,7.80444444 10.433551,8.02930931 9.79893878,7.94474474 C9.18216327,7.8621021 8.76628571,7.49309309 8.56914286,6.88768769 C8.52661868,6.73103681 8.50266418,6.56971705 8.49779592,6.40720721 C8.48653061,6.25633634 8.49779592,6.1045045 8.49779592,5.90654655 C8.5024898,5.63267267 8.47338776,5.30978979 8.57665306,4.99651652 C8.78130612,4.37861862 9.17371429,3.96924925 9.81114286,3.85393393 C10.3079333,3.75200747 10.8193997,3.93635732 11.1442041,4.33441441 C11.3950392,4.6330486 11.5543782,5.00070225 11.6023265,5.39147147 C11.6792639,5.85882706 11.6441484,6.33831863 11.5,6.78870871 L11.5,6.78870871 Z" id="Shape" fill-rule="nonzero"></path>
                    <path d="M3.93159184,0.985465465 L2.75436735,0.985465465 C1.90884354,3.53009009 1.06394558,6.0775976 0.219673469,8.62798799 L1.22510204,8.62798799 L1.99959184,6.23423423 L4.65163265,6.23423423 C4.91730612,7.03375375 5.18297959,7.83231231 5.45146939,8.63663664 C5.62983673,8.63663664 5.796,8.63663664 5.96122449,8.63663664 C6.12644898,8.63663664 6.29918367,8.6424024 6.48787755,8.62990991 C5.62608163,6.06126126 4.77836735,3.52144144 3.93159184,0.985465465 Z M2.20612245,5.44336336 C2.56942857,4.25945946 3.01816327,3.11495495 3.28946939,1.91855856 C3.30006989,1.91724067 3.31078725,1.91724067 3.32138776,1.91855856 C3.32702041,1.91855856 3.33453061,1.92336336 3.33546939,1.92816817 C3.62742857,3.11495495 4.06302041,4.25465465 4.43853061,5.4424024 L2.20612245,5.44336336 Z" id="Shape" fill-rule="nonzero"></path>
                    <path d="M22.1682449,8.27243243 C22.2536735,7.98414414 22.3315918,7.72084084 22.4151429,7.44216216 C22.4742857,7.47003003 22.5184082,7.48924925 22.5597143,7.51135135 C23.1164434,7.82006944 23.7473398,7.96069384 24.3790612,7.91687688 C24.6385913,7.90059853 24.8914545,7.82612903 25.1197551,7.69873874 C25.8707755,7.27495495 25.8773469,6.21501502 25.383551,5.74606607 C25.2342414,5.60484222 25.0683729,5.48314982 24.8897551,5.38378378 C24.664992,5.26615831 24.4336522,5.16219429 24.1969388,5.07243243 C23.8202321,4.93282382 23.4632181,4.74282807 23.1351837,4.50738739 C22.7750547,4.25420238 22.5124536,3.88038736 22.3926122,3.45033033 C22.1763864,2.63844936 22.4931367,1.77614449 23.1783673,1.31123123 C23.5609062,1.05129886 24.004188,0.900378014 24.4626122,0.873993994 C25.0175573,0.82177544 25.5769212,0.895604198 26.1007755,1.09021021 C26.2040408,1.12960961 26.3016735,1.18054054 26.4180816,1.23339339 C26.3242041,1.50822823 26.2415918,1.76864865 26.1514694,2.04252252 L25.9383673,1.94642643 C25.414215,1.70018931 24.8278596,1.62827137 24.2617143,1.74078078 C23.8092245,1.83687688 23.4675102,2.09249249 23.3501633,2.57585586 C23.2562857,2.96984985 23.3313878,3.33597598 23.6233469,3.62234234 C23.7669842,3.76054171 23.9279974,3.87849992 24.1021224,3.97309309 C24.3436024,4.09914874 24.5911263,4.2126857 24.8437551,4.31327327 C25.2372463,4.46337257 25.6092112,4.66700233 25.9496327,4.91867868 C26.3188535,5.1917218 26.576333,5.5949411 26.6724898,6.05069069 C26.8696327,7.02990991 26.4847347,8.03411411 25.4661633,8.48864865 C24.9075918,8.73657658 24.3217959,8.78654655 23.7247347,8.73561562 C23.3117246,8.70579658 22.9060441,8.60846822 22.523102,8.44732733 C22.4057551,8.39735736 22.2977959,8.33681682 22.1682449,8.27243243 Z" id="Path"></path>
                    <path d="M36.3850612,5.12336336 C36.1973061,4.2018018 35.6969388,3.52624625 34.8173061,3.18990991 C34.3744527,3.02356908 33.8969746,2.97787182 33.4316735,3.0572973 C32.4853878,3.20624625 31.7982041,3.71555556 31.4283265,4.62462462 C31.1084616,5.39593202 31.0863191,6.26272486 31.3663673,7.05009009 C31.6160325,7.84398881 32.2480775,8.44992113 33.0383265,8.65297297 C33.4377896,8.76944203 33.8583983,8.78820447 34.2662449,8.70774775 C35.2453878,8.51843844 35.9363265,7.96396396 36.2780408,6.99147147 C36.3978929,6.62419052 36.4640098,6.24078155 36.4742449,5.85369369 C36.4470204,5.60960961 36.4357551,5.36264264 36.3850612,5.12336336 Z M35.2453878,6.94918919 C35.1551582,7.17115229 35.0238185,7.373144 34.8586122,7.54402402 C34.5772177,7.84452104 34.1855746,8.01039307 33.7790276,8.00125886 C33.3724807,7.99212465 32.9883246,7.80882213 32.7200816,7.49597598 C32.4334313,7.16153221 32.2544497,6.74477672 32.2075102,6.30246246 C32.1896735,6.17177177 32.183102,6.03915916 32.1746531,5.94306306 C32.1896735,5.44144144 32.2685306,4.99075075 32.4975918,4.58042042 C32.8241008,3.96376349 33.5169216,3.65146523 34.1817551,3.82126126 C34.5103536,3.89527509 34.8009794,4.0901849 34.9984898,4.36900901 C35.2112141,4.66497532 35.3509838,5.00914121 35.4059184,5.37225225 C35.5046174,5.90168742 35.4487838,6.44915383 35.2453878,6.94630631 L35.2453878,6.94918919 Z" id="Shape" fill-rule="nonzero"></path>
                    <path d="M45.531551,6.07279279 C45.531551,5.83735736 45.5503265,5.62306306 45.54,5.41069069 C45.5261653,4.89042091 45.3749952,4.38368887 45.1025306,3.94426426 C44.8725816,3.56411177 44.5172382,3.28082333 44.1008571,3.14570571 C43.0879184,2.81897898 41.7989796,3.10054054 41.1709388,4.35171171 C40.7491792,5.17418398 40.6699591,6.13620233 40.9512653,7.01933934 C41.216,7.89957958 41.8093061,8.46078078 42.6842449,8.66066066 C43.510513,8.84363555 44.3713673,8.76933779 45.1560408,8.44732733 C45.1853749,8.43283703 45.213616,8.41613434 45.2405306,8.39735736 C45.1842041,8.16192192 45.1297551,7.93417417 45.0753061,7.70258258 C45.0435532,7.70977399 45.0122128,7.71875666 44.9814286,7.72948949 C44.5370099,7.90434902 44.0633096,7.98794033 43.5873469,7.9754955 C43.3213985,7.97746112 43.0572334,7.93092883 42.8072245,7.83807808 C42.1726122,7.5987988 41.7201224,6.94246246 41.7642449,6.07279279 L45.531551,6.07279279 Z M41.751102,5.34726727 C41.7670612,5.25117117 41.7773878,5.17045045 41.7952245,5.09261261 C41.8565404,4.80140691 41.9806686,4.52791256 42.1585306,4.29213213 C42.5447364,3.77801015 43.2230202,3.5985898 43.8042041,3.85681682 C43.9343732,3.91393996 44.0535772,3.99431114 44.1562449,4.09417417 C44.498898,4.43147147 44.5871429,4.86870871 44.603102,5.34342342 L41.751102,5.34726727 Z" id="Shape" fill-rule="nonzero"></path>
                    <path d="M29.164,3.13705706 L30.535551,3.13705706 L30.535551,3.90582583 L29.1649388,3.90582583 C29.1649388,3.99039039 29.155551,4.05189189 29.155551,4.11339339 C29.155551,5.0166967 29.155551,5.92096096 29.155551,6.82426426 C29.1541992,7.0133191 29.1718154,7.20201639 29.2081224,7.38738739 C29.2841633,7.75255255 29.5010204,7.92648649 29.8652653,7.92648649 C30.0530204,7.92648649 30.2407755,7.90438438 30.4501224,7.89189189 C30.4651429,8.12828829 30.4801633,8.36564565 30.4951837,8.61069069 C30.4556399,8.63121711 30.41488,8.64919018 30.3731429,8.6645045 C30.0510732,8.75787422 29.7140091,8.78433958 29.3817959,8.74234234 C28.7377959,8.66162162 28.3435102,8.26186186 28.244,7.58918919 C28.2144409,7.37686768 28.199384,7.1626944 28.1989388,6.94822823 C28.1942449,6.01321321 28.1989388,5.07723724 28.1989388,4.14222222 L28.1989388,3.90582583 L27.3690612,3.90582583 L27.3690612,3.14378378 C27.6356735,3.12648649 27.9041633,3.14378378 28.1923673,3.13225225 L28.1923673,1.81861862 L29.1414694,1.55915916 C29.1743265,2.09249249 29.1433469,2.60660661 29.164,3.13705706 Z" id="Path"></path>
                    <path d="M40.3204082,3.04960961 L40.3204082,3.99039039 C40.2143265,3.98366366 40.1176327,3.97405405 40.0218776,3.97309309 C39.6120607,3.95923933 39.2233098,4.15893182 38.9892245,4.50354354 C38.7821811,4.80538941 38.6651114,5.16222793 38.6522041,5.53081081 C38.6390612,5.723003 38.6437551,5.92192192 38.6437551,6.116997 C38.6437551,6.88128128 38.6437551,7.64556557 38.6437551,8.40984985 L38.6437551,8.62510511 L37.6777551,8.62510511 C37.6702449,6.79927928 37.6617959,4.97345345 37.6542857,3.14762763 L38.4775918,3.14762763 C38.5245306,3.49933934 38.4775918,3.85105105 38.5451837,4.19987988 C38.748898,3.7193994 39.0352245,3.33501502 39.5177551,3.13129129 C39.7714308,3.02301753 40.0508724,2.99458026 40.3204082,3.04960961 Z" id="Path"></path>
                </g>
                <rect id="Rectangle" stroke="#FFFFFF" fill-rule="nonzero" x="0" y="0" width="85" height="23" rx="3"></rect>
                <g id="Group-2" transform="translate(30.000000, 3.000000)" fill="#FFFFFF">
                    <path d="M2.80540541,2.18897297 C2.77007722,1.50803604 2.38030888,1.06753153 1.71023166,0.945873874 C1.35057915,0.880720721 0.99034749,0.901477477 0.63011583,0.939531532 C0.566988417,0.945873874 0.504440154,0.957405405 0.438416988,0.966630631 L0.438416988,3.80281081 C0.627799228,3.81203604 0.81023166,3.82356757 0.992084942,3.82933333 C1.22794988,3.83957638 1.46417161,3.82020472 1.69517375,3.77167568 C2.14054054,3.67192793 2.48339768,3.44072072 2.66988417,3.01232432 C2.77916213,2.75221569 2.82558104,2.47020031 2.80540541,2.18897297 L2.80540541,2.18897297 Z M2.34903475,2.784 C2.25428036,3.12036097 1.98686811,3.38109331 1.64710425,3.4683964 C1.38706564,3.54508108 1.12007722,3.53124324 0.854247104,3.51394595 C0.838645763,3.51055703 0.823623276,3.50492436 0.80965251,3.49722523 L0.80965251,1.23992793 C0.867567568,1.23127928 0.925482625,1.22032432 0.97992278,1.21455856 C1.19934502,1.18659975 1.42198354,1.19694077 1.63783784,1.24511712 C2.05888031,1.34544144 2.31312741,1.60778378 2.39073359,2.03099099 C2.43821212,2.28169161 2.42370207,2.54012871 2.3484556,2.784 L2.34903475,2.784 Z" id="Shape" fill-rule="nonzero"></path>
                    <path d="M7.81621622,1.75308108 L8.19150579,1.75308108 C7.96795367,2.44209009 7.7472973,3.1212973 7.52664093,3.80281081 L7.17277992,3.80281081 C7.00656371,3.26947748 6.83976834,2.73556757 6.66949807,2.1883964 C6.53397683,2.73845045 6.33011583,3.26255856 6.15289575,3.79935135 L5.80540541,3.79935135 C5.6003861,3.12418018 5.39362934,2.4443964 5.18223938,1.74904505 C5.25579151,1.74904505 5.31833977,1.74558559 5.38030888,1.74500901 C5.44227799,1.74443243 5.50135135,1.74500901 5.57200772,1.74500901 L6.00289575,3.41016216 L6.52413127,1.75192793 L6.85250965,1.75192793 C6.93822394,2.02695495 7.02625483,2.30140541 7.10907336,2.57643243 C7.19189189,2.85145946 7.27123552,3.12072072 7.36042471,3.41881081 C7.39864865,3.26255856 7.43050193,3.12706306 7.46583012,2.99214414 C7.5011583,2.85722523 7.54285714,2.71481081 7.58166023,2.57643243 C7.62046332,2.43805405 7.65868726,2.30659459 7.69749035,2.17282883 C7.73629344,2.03906306 7.77509653,1.89664865 7.81621622,1.75308108 Z" id="Path"></path>
                    <path d="M17.2951737,0.789045045 L17.2951737,1.99581982 C17.2790276,1.98551137 17.2637286,1.97394353 17.2494208,1.96122523 C17.0519305,1.73059459 16.7953668,1.66774775 16.507529,1.71618018 C16.1600386,1.77383784 15.9370656,1.98832432 15.8125483,2.30601802 C15.6970111,2.60151901 15.6894266,2.92803843 15.7911197,3.22854054 C15.8415859,3.38847482 15.9341793,3.5320238 16.0592664,3.64425225 C16.4108108,3.96252252 17.015444,3.90486486 17.2725869,3.52893694 C17.2830838,3.51049968 17.2919958,3.49121174 17.2992278,3.47127928 L17.3276062,3.49145946 C17.334556,3.59178378 17.3415058,3.69153153 17.3490347,3.79589189 C17.4547322,3.80687598 17.561291,3.80687598 17.6669884,3.79589189 L17.6669884,0.789045045 L17.2951737,0.789045045 Z M17.2772201,3.06652252 C17.2424451,3.3077482 17.05522,3.49903403 16.8138996,3.53989189 C16.5652088,3.59041427 16.3141121,3.46482816 16.2063707,3.23603604 C16.0588739,2.94231652 16.0636237,2.59562343 16.219112,2.30601802 C16.3279302,2.07808603 16.5768429,1.95121057 16.8262091,1.99656927 C17.0755752,2.04192797 17.2633414,2.24823354 17.2841699,2.49974775 C17.2957529,2.58969369 17.2940154,2.68136937 17.2992278,2.78803604 C17.2916988,2.87048649 17.2916988,2.96965766 17.2772201,3.06652252 L17.2772201,3.06652252 Z" id="Shape" fill-rule="nonzero"></path>
                    <path d="M26.4104247,3.79935135 L26.0351351,3.79935135 L26.0351351,0.789621622 L26.407529,0.789621622 L26.407529,2.05809009 C26.4411197,2.02176577 26.4573359,2.00446847 26.472973,1.98601802 C26.6337573,1.78664039 26.8844737,1.6811228 27.1401544,1.70522523 C27.393773,1.71832657 27.6172675,1.87533346 27.7146718,2.10882883 C27.772649,2.23716155 27.8024629,2.37633002 27.8021236,2.51704505 C27.8055985,2.92641441 27.8021236,3.33520721 27.8021236,3.74457658 C27.8021236,3.75899099 27.7980695,3.77398198 27.7951737,3.79704505 L27.4210425,3.79704505 L27.4210425,3.67192793 C27.4210425,3.33809009 27.4210425,3.00482883 27.4210425,2.67156757 C27.4222573,2.57322786 27.4129382,2.47503943 27.3932432,2.37866667 C27.3237452,2.06962162 27.0330116,1.92547748 26.7411197,2.05578378 C26.5423415,2.13136441 26.411648,2.32193566 26.4133205,2.53376577 C26.4069498,2.90854054 26.4133205,3.28331532 26.4133205,3.65866667 L26.4104247,3.79935135 Z" id="Path"></path>
                    <path d="M13.5011583,2.47899099 C13.422973,2.12958559 13.2249035,1.87762162 12.8785714,1.75538739 C12.7452114,1.70897377 12.6035154,1.6910949 12.4627413,1.70291892 C12.046332,1.73347748 11.7440154,1.92951351 11.5841699,2.31985586 C11.4992705,2.53631468 11.4748537,2.77162675 11.5135135,3.00079279 C11.5830116,3.48454054 11.9339768,3.81434234 12.4233591,3.85066667 C12.9388031,3.88872072 13.3737452,3.58082883 13.4930502,3.08727928 C13.5136435,2.98201863 13.5289137,2.87579474 13.5388031,2.76900901 C13.5260618,2.66637838 13.5196911,2.57066667 13.5011583,2.47899099 Z M13.0042471,3.2861982 C12.7586873,3.66962162 12.2478764,3.6725045 12.0162162,3.28043243 C11.8158301,2.94255856 11.8291506,2.58854054 12.0272201,2.25412613 C12.1350392,2.08448767 12.3242969,1.98354023 12.5258863,1.98814438 C12.7274758,1.99274852 12.9118844,2.10223021 13.0117761,2.27661261 C13.0984086,2.42910191 13.142406,2.6019201 13.1391892,2.77708108 C13.1442794,2.95526101 13.0974094,3.13109333 13.0042471,3.28331532 L13.0042471,3.2861982 Z" id="Shape" fill-rule="nonzero"></path>
                    <path d="M5.07220077,2.54010811 C5.01428571,2.1365045 4.746139,1.82861261 4.36447876,1.73693694 C4.24254793,1.70725239 4.11667083,1.69693898 3.99150579,1.70637838 C3.57567568,1.74212613 3.28204633,1.95315315 3.13030888,2.34637838 C3.07569419,2.48835559 3.05219619,2.64031548 3.06138996,2.79207207 C3.06138996,2.83704505 3.05849421,2.88317117 3.06138996,2.92814414 C3.0817918,3.42898495 3.48495419,3.83035551 3.98803089,3.85066667 C4.49601605,3.89917708 4.95834716,3.55677337 5.05772201,3.05845045 C5.09514738,2.88810136 5.10005899,2.71226458 5.07220077,2.54010811 Z M4.59034749,3.232 C4.48030888,3.44763964 4.3007722,3.57218018 4.05,3.56756757 C3.87934853,3.56485933 3.71975792,3.48296614 3.61853282,3.34616216 C3.49638119,3.18557024 3.43303418,2.98823635 3.43899614,2.78688288 C3.43506325,2.62191758 3.47206342,2.45853333 3.54671815,2.31120721 C3.64362928,2.10580859 3.85466961,1.9781572 4.08243243,1.98717117 C4.3028069,1.98233916 4.50403746,2.11125711 4.59092664,2.31293694 C4.74223605,2.60062036 4.74201958,2.94392935 4.59034749,3.23142342 L4.59034749,3.232 Z" id="Shape" fill-rule="nonzero"></path>
                    <path d="M21.0648649,2.5378018 C20.9907336,2.1341982 20.7752896,1.85398198 20.3698842,1.73693694 C20.2451437,1.70182672 20.1147959,1.69086589 19.9859073,1.70464865 C19.5706564,1.74673874 19.2764479,1.95488288 19.1264479,2.34868468 C19.0720303,2.49070462 19.0487299,2.64266317 19.0581081,2.79437838 C19.0581081,2.83992793 19.0552124,2.88547748 19.0581081,2.93045045 C19.0785099,3.43129126 19.4816723,3.83266181 19.984749,3.85297297 C20.4928349,3.90038163 20.9544133,3.55698242 21.0527027,3.05845045 C21.092552,2.88756438 21.0966917,2.71034735 21.0648649,2.5378018 L21.0648649,2.5378018 Z M20.5772201,3.24583784 C20.4556368,3.50057689 20.1639902,3.62705153 19.8938224,3.5421982 C19.7510503,3.49592359 19.6310851,3.39770108 19.5579151,3.26717117 C19.4744674,3.12442541 19.4314365,2.96183396 19.4333977,2.79668468 C19.4287961,2.63050335 19.4647673,2.46569207 19.5382239,2.3163964 C19.6329422,2.11023666 19.8422552,1.98039467 20.0698842,1.98659459 C20.2945655,1.97874698 20.5006049,2.11036607 20.5870656,2.31697297 C20.7391595,2.60895557 20.7354691,2.95711557 20.5772201,3.24583784 L20.5772201,3.24583784 Z" id="Shape" fill-rule="nonzero"></path>
                    <path d="M29.9861004,2.8405045 C30.0196911,2.52569369 29.9716216,2.24259459 29.7851351,1.99178378 C29.6863431,1.85848606 29.5422712,1.76546045 29.3797297,1.73001802 C28.9418919,1.62738739 28.476834,1.78767568 28.2666023,2.27834234 C28.1603512,2.53209884 28.1342903,2.8120633 28.1918919,3.08093694 C28.2700772,3.48454054 28.5440154,3.76245045 28.9447876,3.83048649 C29.2315062,3.87965143 29.5261802,3.85260224 29.7990347,3.75207207 C29.8238208,3.74148097 29.8478195,3.7291496 29.8708494,3.71517117 L29.8065637,3.45571171 C29.7642857,3.47012613 29.7324324,3.48223423 29.7,3.49203604 C29.4930886,3.55905153 29.2731214,3.57604891 29.0583012,3.54162162 C28.7245849,3.4828211 28.4955243,3.17420344 28.5370656,2.83935135 L29.9861004,2.8405045 Z M28.9627413,1.99236036 C29.257529,1.90990991 29.519305,2.05347748 29.5998069,2.34637838 C29.6183398,2.41326126 29.6235521,2.48418018 29.6368726,2.56201802 L28.5445946,2.56201802 C28.5573359,2.29390991 28.7328185,2.05751351 28.9627413,1.99236036 L28.9627413,1.99236036 Z" id="Shape" fill-rule="nonzero"></path>
                    <path d="M21.8067568,2.07423423 C21.8409266,2.02926126 21.8559846,2.00792793 21.8727799,1.98774775 C22.0909517,1.7259325 22.4521776,1.63116137 22.7716216,1.75192793 C23.0339768,1.85628829 23.1631274,2.06500901 23.2123552,2.3285045 C23.2265255,2.4067004 23.2335042,2.48601978 23.2332046,2.56547748 C23.2332046,2.94082883 23.2332046,3.31502703 23.2332046,3.69095495 C23.2332046,3.72381982 23.2297297,3.75726126 23.2274131,3.79762162 L22.8515444,3.79762162 L22.8515444,3.66846847 C22.8515444,3.33520721 22.8515444,3.00136937 22.8515444,2.66810811 C22.8526531,2.57350988 22.8441152,2.47904385 22.8260618,2.38616216 C22.7559846,2.06212613 22.446139,1.91567568 22.1478764,2.06558559 C21.9624442,2.15020048 21.8436306,2.33472592 21.8438224,2.5378018 C21.8374517,2.85607207 21.8438224,3.17203604 21.8409266,3.49261261 C21.8409266,3.59120721 21.8409266,3.68922523 21.8409266,3.79646847 L21.4604247,3.79646847 L21.4604247,1.7525045 L21.7760618,1.7525045 C21.7859073,1.85398198 21.7945946,1.95027027 21.8067568,2.07423423 Z" id="Path"></path>
                    <path d="M15.372973,3.15300901 C15.372973,2.95985586 15.372973,2.7667027 15.372973,2.57643243 C15.3724126,2.48923582 15.3660278,2.40217283 15.353861,2.31581982 C15.3086873,2.00389189 15.1187259,1.78940541 14.8291506,1.73001802 C14.5428193,1.67060292 14.2447303,1.70899336 13.9830116,1.83899099 C13.9533737,1.85511674 13.9247493,1.87302373 13.8972973,1.89261261 C13.9274131,1.97506306 13.9552124,2.04886486 13.9830116,2.12727928 C14.0235521,2.10882883 14.053668,2.09441441 14.0843629,2.08115315 C14.2531949,1.99980054 14.4420479,1.96876528 14.6281853,1.99178378 C14.8876448,2.03041441 15.0179537,2.21145946 14.9814672,2.48879279 C14.8980695,2.49282883 14.8216216,2.48879279 14.7498069,2.5009009 C14.610392,2.51781393 14.4719743,2.54206409 14.3351351,2.57354955 C14.1821425,2.61019035 14.0420193,2.68751343 13.9297297,2.79726126 C13.6442085,3.07517117 13.6708494,3.69787387 14.184556,3.82875676 C14.4548384,3.90517697 14.7455275,3.83145223 14.946139,3.6356036 C14.9704633,3.61369369 14.9936293,3.59063063 15.0266409,3.55891892 C15.0405405,3.64886486 15.0521236,3.72554955 15.0631274,3.79877477 C15.1704562,3.81995799 15.281133,3.81759688 15.3874517,3.79185586 C15.3822394,3.57563964 15.3758687,3.36403604 15.372973,3.15300901 Z M15.0046332,3.11610811 C14.9911952,3.26187856 14.9148234,3.39465133 14.7953403,3.47996488 C14.6758571,3.56527843 14.5250445,3.59472025 14.3820463,3.56064865 C14.2623082,3.54019142 14.1675142,3.44856739 14.1434363,3.33001802 C14.083305,3.13177099 14.186471,2.92083151 14.3803089,2.84569369 C14.5790839,2.76839185 14.7934949,2.73933784 15.0057915,2.76093694 C15.0057915,2.88259459 15.0133205,3.00021622 15.0046332,3.11610811 Z" id="Shape" fill-rule="nonzero"></path>
                    <path d="M10.2318533,3.79935135 L9.86698842,3.79935135 L9.86698842,3.67481081 C9.86698842,3.34558559 9.86988417,3.01578378 9.86698842,2.68598198 C9.86803876,2.58010582 9.85676673,2.47446486 9.83339768,2.37117117 C9.75405405,2.05174775 9.43610039,1.91682883 9.14420849,2.07365766 C8.99593523,2.14969281 8.89244688,2.29098279 8.86505792,2.45477477 C8.85424624,2.51819338 8.84920648,2.58245409 8.85,2.64677477 C8.85,2.9956036 8.85,3.34385586 8.85,3.69268468 C8.85,3.72612613 8.84710425,3.75956757 8.8453668,3.79992793 L8.47471042,3.79992793 L8.47471042,1.74962162 C8.58008066,1.74359114 8.68574633,1.74493981 8.79092664,1.75365766 C8.79903475,1.85398198 8.80714286,1.95027027 8.81640927,2.06731532 C8.84942085,2.02983784 8.86795367,2.00965766 8.88590734,1.98832432 C9.0933869,1.73910387 9.43176211,1.63972911 9.74189189,1.73693694 C9.92189379,1.79270415 10.0694017,1.92235373 10.1472973,2.09326126 C10.2049505,2.20917742 10.236008,2.33640031 10.2382239,2.46572973 C10.2411197,2.89354955 10.2382239,3.32194595 10.2382239,3.74976577 C10.2374879,3.7664418 10.235357,3.78302774 10.2318533,3.79935135 Z" id="Path"></path>
                    <path d="M25.7397683,1.74443243 L25.7397683,2.03272072 L25.211583,2.03272072 C25.2063609,2.06479887 25.2028809,2.09713415 25.2011583,2.12958559 C25.2011583,2.46688288 25.2011583,2.80418018 25.2011583,3.14147748 C25.1998817,3.19825942 25.2041488,3.25503055 25.2138996,3.31099099 C25.2480695,3.48396396 25.3349421,3.54969369 25.5098456,3.54162162 C25.5677606,3.54162162 25.6297297,3.53124324 25.7009653,3.5249009 C25.7055985,3.61772973 25.7090734,3.7070991 25.7137066,3.80511712 C25.5127413,3.85873874 25.319305,3.8818018 25.1276062,3.80511712 C24.9891439,3.75148567 24.8892555,3.62926093 24.8646718,3.48338739 C24.8419035,3.36070308 24.8300814,3.23625405 24.8293436,3.1114955 C24.8247104,2.80072072 24.8293436,2.48994595 24.8293436,2.17917117 L24.8293436,2.03906306 L24.5148649,2.03906306 L24.5148649,1.75077477 L24.827027,1.75077477 L24.827027,1.25491892 L25.1982625,1.15459459 L25.1982625,1.74443243 L25.7397683,1.74443243 Z" id="Path"></path>
                    <path d="M11.1028958,3.80281081 L10.7438224,3.80281081 L10.7438224,0.78154955 L10.9974903,0.78154955 C11.0305019,0.78154955 11.0635135,0.785585586 11.1028958,0.788468468 L11.1028958,3.80281081 Z" id="Path"></path>
                </g>
            </g>
        </g>
    </g>
</svg>