<?xml version="1.0" encoding="UTF-8"?>
<svg width="82px" height="52px" viewBox="0 0 82 52" version="1.1" xmlns="http://www.w3.org/2000/svg" xmlns:xlink="http://www.w3.org/1999/xlink">
    <!-- Generator: Sketch 53.1 (72631) - https://sketchapp.com -->
    <title>cagri merkezi</title>
    <desc>Created with Sketch.</desc>
    <g id="Symbols" stroke="none" stroke-width="1" fill="none" fill-rule="evenodd">
        <g id="footer" transform="translate(-1091.000000, -368.000000)">
            <g id="cagri-merkezi" transform="translate(1091.000000, 362.000000)">
                <path d="M33.7586207,16.5913762 C33.7586207,16.8048229 33.7319667,17.0114201 33.6821286,17.2076637 C33.6718771,17.2501937 33.6597329,17.291768 33.6477466,17.3317495 C33.3348386,18.3360639 32.407628,19.0643313 31.3118193,19.0643313 C27.7176362,19.0625791 24.1225069,19.0695878 20.5308472,19.0522254 C20.435587,19.0512696 20.3409575,19.0409159 20.2464858,19.0235534 C19.9851509,18.9748111 19.7247623,18.8776451 19.4626388,18.8169561 C19.438666,18.8109032 19.4153241,18.8064431 19.3913513,18.8013459 C19.2735377,18.7761783 19.1257581,18.7578601 19.0234006,18.8056466 C17.2951519,19.63108 15.7353437,20.7144016 14.3644788,22.0624608 C12.7005782,23.6951687 11.3924842,25.5110585 10.4376733,27.499617 C9.50431182,29.4387961 8.90609617,31.5453875 8.63372115,33.8127011 C8.27444479,36.814335 8.59839284,39.7473155 9.56881754,42.6038375 C9.72353664,43.0630665 9.90317482,43.5127381 10.0878599,43.9649584 C10.3165477,44.5248577 10.0810781,45.1690207 9.54563333,45.4423599 L9.53617039,45.4476165 C9.67874538,45.8077679 9.79655901,46.1593178 9.95206669,46.4909566 C10.2503071,47.1297038 10.6138418,47.7157265 11.0298958,48.2581041 C11.6254303,49.0359102 12.3266343,49.7286562 13.089032,50.3674034 C15.1577888,52.0956844 17.5091722,53.3325602 19.9808926,54.3473877 C20.5000927,54.5600379 21.0268631,54.7518214 21.5287145,54.945357 C21.570036,54.91334 21.6258673,54.8220676 21.6455818,54.7820862 C21.9343593,54.2344521 22.3452087,53.9322817 22.9992557,53.9513963 C24.0915946,53.9818204 25.1848798,53.9722631 26.277061,53.9541042 C26.7798587,53.9462991 27.1340882,54.1675509 27.4047283,54.5608344 C27.9409617,55.3429413 27.9428543,56.6032325 27.4072517,57.3861358 C27.1383465,57.7810122 26.7867982,58.006087 26.2822657,57.9998747 C25.1452932,57.9825123 24.0065858,57.9860166 22.8686671,57.9981225 C22.435422,58.0024233 22.0900246,57.8358075 21.8570786,57.4887177 C21.6876919,57.2403868 21.5949551,56.9417207 21.4539572,56.6709301 C21.4023842,56.5736048 21.3216338,56.4592356 21.2270043,56.4202099 C20.5120791,56.1346055 19.78154,55.8880268 19.0724502,55.58952 C16.4348128,54.475615 13.9364384,53.1148127 11.7680053,51.2033498 C10.7565745,50.3110152 9.86863508,49.3266118 9.17941748,48.1974151 C8.82282228,47.616649 8.51937727,46.9978129 8.27870311,46.3337388 C8.26845159,46.3060226 8.24857942,46.2816514 8.24700226,46.2816514 C7.80855261,46.3667115 7.40211926,46.4857001 6.98701153,46.520425 C5.64027717,46.6341571 4.47144612,46.1497605 3.44093174,45.3120619 C1.88790525,44.0490628 0.976939367,42.3747806 0.477611462,40.4580612 C0.392444984,40.1327939 0.329674136,39.8003586 0.268795876,39.4695163 C0.267061003,39.4669676 0.267061003,39.4642597 0.267061003,39.4618704 C0.190568889,38.9478462 0.15019367,38.4226717 0.15019367,37.8880993 C0.15019367,36.814335 0.31264084,35.7760921 0.610881228,34.802361 C0.612458385,34.8014053 0.612458385,34.7996531 0.612458385,34.7996531 C0.997600124,33.656439 1.61458394,32.6521246 2.61166259,31.8986896 C3.5981743,31.1530598 4.70865054,30.8867293 5.93078949,31.094123 C5.97289959,31.1027246 6.01674455,31.0958752 6.03724759,31.0958752 C6.29858251,30.226956 6.51859591,29.3607447 6.81935975,28.5240019 C6.86919791,28.3823943 6.92077094,28.2426982 6.97502514,28.1030022 C9.05387578,22.6231566 12.6781826,18.5417055 17.974118,15.9768409 C18.044617,15.9421159 18.1193742,15.8847721 18.1682661,15.8188266 L18.1692124,15.8180301 C18.1854571,15.7954112 18.1993361,15.7718365 18.208799,15.748421 C18.3882795,15.308466 18.6358931,14.9542082 18.9547943,14.6886741 C18.9745087,14.6721081 18.9951695,14.6557014 19.0156725,14.6400911 C19.0191423,14.6373832 19.0218234,14.6348346 19.0252932,14.6330824 C19.4222636,14.3371243 19.9121286,14.1609511 20.443315,14.1584025 L20.4647644,14.1584025 C22.0589547,14.1488452 28.9104401,14.1252705 31.3048798,14.1184211 L31.3170239,14.1184211 C32.6653355,14.1209697 33.7586207,15.2269102 33.7586207,16.5913762" id="Fill-43" fill="#FFFFFF"></path>
                <text id="*0010" font-family="Helvetica" font-size="21.6" font-weight="normal" letter-spacing="-0.0415384546" fill="#FFFFFF">
                    <tspan x="36.9642596" y="21.1678947">*001</tspan>
                    <tspan x="53.1177722" y="47.1678947">0</tspan>
                </text>
                <g id="logo-Million2-Copy" transform="translate(20.724138, 28.745614)" fill="#FEFEFE">
                    <g id="Group">
                        <path d="M28.0570883,0.297164253 C28.0603256,0.0410971839 28.3063552,-0.0853556897 28.5879943,0.0695490805 L29.9638179,0.809298391 C30.1710007,0.9262673 30.2972528,1.14755983 30.2972528,1.38149764 C30.2972528,4.76727334 30.2972528,8.15304903 30.2972528,11.5388247 C30.2972528,12.1457985 29.7954818,12.6389647 29.1739333,12.6389647 C28.5523848,12.6389647 28.0473766,12.1457985 28.0473766,11.5388247 C28.0473766,7.79265834 28.0570883,4.04649196 28.0570883,0.297164253 Z" id="Shape"></path>
                        <path d="M25.7716026,0.297164253 C25.7716026,0.0410971839 25.525573,-0.0853556897 25.2406966,0.0695490805 L23.8681103,0.809298391 C23.6609275,0.9262673 23.5346755,1.14755983 23.5346755,1.38149764 C23.5346755,4.76727334 23.5346755,8.15304903 23.5346755,11.5388247 C23.5346755,12.1457985 24.0364464,12.6389647 24.6579949,12.6389647 C25.2795434,12.6389647 25.7845516,12.1457985 25.7845516,11.5388247 C25.7845516,7.79265834 25.7716026,4.04649196 25.7716026,0.297164253 Z" id="Shape"></path>
                        <path d="M48.3383458,3.79674753 L48.4354627,3.95797495 C48.9631315,4.85262903 49.2285845,5.81683219 49.2285845,6.85374575 C49.2285845,7.90014328 48.9598943,8.87383041 48.4322255,9.7842911 C47.8980823,10.6947518 47.1761796,11.4028879 46.2600429,11.915022 C45.3439063,12.4239948 44.33389,12.6832232 43.2267567,12.6832232 C41.6016663,12.6832232 40.2161311,12.1173466 39.070151,10.9887547 C37.9209337,9.86016282 37.3447065,8.48814914 37.3447065,6.87587501 C37.3447065,5.72831518 37.6328201,4.71036954 38.2187591,3.79358621 C38.4842121,3.42687288 38.8985777,3.20241903 39.3647391,3.20241903 C40.1287258,3.20241903 40.7502744,3.8062315 40.7502744,4.55230345 C40.7502744,4.78624127 40.688767,5.00437248 40.5787011,5.20037443 C40.3100108,5.68405667 40.1772843,6.23728799 40.1772843,6.86639104 C40.1772843,7.8305942 40.465398,8.60827937 41.0480997,9.2057692 C41.6275642,9.80009771 42.3591786,10.1004233 43.2494173,10.1004233 C44.1364189,10.1004233 44.8777449,9.79693639 45.4669211,9.19312392 C46.0560973,8.58931144 46.3506854,7.81478759 46.3506854,6.86639104 C46.3506854,6.21832006 46.2179589,5.65560477 45.9525059,5.16559989 C45.8618634,4.9790819 45.8100677,4.77359598 45.8100677,4.5586261 C45.8100677,3.81255414 46.4316162,3.20874167 47.1956029,3.20874167 C47.6682388,3.20874167 48.0890789,3.44267949 48.3383458,3.79674753 Z" id="Shape"></path>
                        <path d="M60.8146373,11.187918 C60.8146373,9.45867495 60.8146373,7.73259322 60.8146373,5.3268273 C60.8146373,4.04965328 60.4714907,3.08861144 59.7754859,2.44054046 C58.953229,1.67233925 57.9529243,1.28665799 56.7713347,1.28665799 C56.1983447,1.28665799 55.6350663,1.39098161 55.0879742,1.59962885 C54.5376447,1.80511477 53.9258079,2.17182811 53.2459892,2.71873678 C53.242752,1.93472897 52.5791195,1.28665799 51.7600998,1.28665799 C50.9410802,1.28665799 50.2774477,1.93472897 50.2774477,2.73770471 C50.2774477,5.72831518 50.2774477,8.80744265 50.2774477,11.187918 C50.2774477,11.9877324 50.9410802,12.6389647 51.7600998,12.6389647 C52.5823567,12.6389647 53.2459892,11.9877324 53.2459892,11.187918 C53.2459892,10.2584894 53.2459892,9.38596455 53.2459892,8.19414621 C53.2459892,7.04342506 53.2913105,6.29419179 53.3754785,5.94644638 C53.5438146,5.2825688 53.8481144,4.76095069 54.2786662,4.38791472 C54.7124553,4.0085561 55.2304124,3.82203811 55.8357747,3.82203811 C56.3019361,3.82203811 56.6904039,3.93584569 57.0076526,4.16346087 C57.3249014,4.39107604 57.5482704,4.71985351 57.6745224,5.15611592 C57.8007744,5.58921702 57.8655191,6.46806449 57.8655191,7.78949702 C57.8655191,9.51241742 57.8655191,9.99926098 57.8655191,11.187918 C57.8655191,11.9877324 58.5259144,12.6389647 59.3384596,12.6389647 C60.154242,12.6389647 60.8114,11.9877324 60.8146373,11.187918 Z" id="Shape"></path>
                        <path d="M45.0428438,0.761878564 C45.4118882,0.761878564 45.7291369,0.888331437 45.9945899,1.15072115 C46.2568057,1.4036269 46.386295,1.71659776 46.386295,2.08014977 C46.386295,2.43737914 46.2568057,2.74086604 45.9945899,2.99693311 C45.7291369,3.2561615 45.4118882,3.38577569 45.0428438,3.38577569 C44.6770366,3.38577569 44.3630251,3.2561615 44.0975721,2.99693311 C43.8353563,2.74402736 43.7026298,2.43737914 43.7026298,2.08014977 C43.7026298,1.71659776 43.8353563,1.4036269 44.0975721,1.15072115 C44.3630251,0.888331437 44.6770366,0.761878564 45.0428438,0.761878564 Z" id="Shape"></path>
                        <path d="M41.5239728,0.761878564 C41.8930172,0.761878564 42.2102659,0.888331437 42.4757189,1.15072115 C42.7379347,1.4036269 42.867424,1.71659776 42.867424,2.08014977 C42.867424,2.43737914 42.7379347,2.74086604 42.4757189,2.99693311 C42.2102659,3.2561615 41.8930172,3.38577569 41.5239728,3.38577569 C41.1581656,3.38577569 40.8441541,3.2561615 40.5787011,2.99693311 C40.3164853,2.74402736 40.1837588,2.43737914 40.1837588,2.08014977 C40.1837588,1.71659776 40.3164853,1.4036269 40.5787011,1.15072115 C40.8441541,0.888331437 41.1581656,0.761878564 41.5239728,0.761878564 Z" id="Shape"></path>
                        <path d="M20.1388193,0.0284518966 C19.7212163,0.0284518966 19.3683581,0.167550058 19.0705327,0.458391667 C18.7727074,0.749233276 18.6302692,1.09381736 18.6302692,1.50162787 C18.6302692,1.92840632 18.7759447,2.28879701 19.0802444,2.59228391 C19.3780698,2.88944816 19.7341653,3.03803029 20.1614799,3.03803029 C20.5790828,3.03803029 20.9222294,2.88944816 21.2168175,2.59860655 C21.51788,2.30460362 21.657081,1.95685822 21.657081,1.54272506 C21.657081,1.12226925 21.5146428,0.768201208 21.2135802,0.467875633 C20.9157549,0.177034023 20.5628966,0.0284518966 20.1388193,0.0284518966 Z" id="Shape"></path>
                        <path d="M21.2621387,11.5388247 C21.2621387,9.58512782 21.2621387,7.63459225 21.2621387,5.68089535 C21.2621387,5.07392156 20.7603678,4.58075535 20.1388193,4.58075535 C19.5172707,4.58075535 19.0122626,5.07392156 19.0122626,5.68089535 C19.0122626,7.63459225 19.0122626,9.58512782 19.0122626,11.5388247 C19.0122626,12.1457985 19.5172707,12.6389647 20.1388193,12.6389647 C20.7603678,12.6389647 21.2621387,12.1457985 21.2621387,11.5388247 Z" id="Shape"></path>
                        <path d="M2.24987613,2.97796517 C2.24987613,2.37099138 1.74486796,1.87782517 1.12331945,1.87782517 C0.501770935,1.87782517 0,2.37099138 0,2.97796517 C0,5.82947748 0,8.6841511 0,11.5388247 C0,12.1457985 0.501770935,12.6389647 1.12331945,12.6389647 C1.74486796,12.6389647 2.24987613,12.1457985 2.24987613,11.5388247 C2.24987613,10.362813 2.24987613,9.18680127 2.24987613,8.01078955 C2.24987613,7.24891098 2.28224844,6.28470782 2.55741315,5.56708776 C2.75488429,5.05495362 3.06889578,4.60604592 3.52534547,4.28042977 C3.95913454,3.97062023 4.45119378,3.81255414 4.98857426,3.81255414 C5.44826118,3.81255414 5.87881301,3.92636173 6.25109468,4.19507408 C6.6395625,4.47643173 6.88235488,4.88740357 7.02803032,5.32998862 C7.25139931,5.99386621 7.26758547,6.87587501 7.26758547,7.57452713 C7.26758547,8.89279834 7.26758547,10.2142309 7.26758547,11.5356634 C7.26758547,12.1457985 7.77259364,12.6389647 8.39737938,12.6389647 C9.02216513,12.6389647 9.52717329,12.1457985 9.52717329,11.5356634 C9.52717329,10.3375224 9.52717329,9.13938144 9.52717329,7.94124047 C9.52717329,7.19832983 9.55630838,6.22780403 9.82823586,5.53231322 C10.0289442,5.02334041 10.3429557,4.59023931 10.7961682,4.27410713 C11.2364317,3.96429759 11.7382026,3.81255414 12.2788204,3.81255414 C12.9651135,3.81255414 13.5607642,4.04649196 13.9621809,4.6028846 C14.4445285,5.27308483 14.4963242,6.51864564 14.4963242,7.32162139 C14.4963242,8.7284096 14.4963242,10.1320365 14.4963242,11.5388247 C14.4963242,12.1457985 15.0013323,12.6389647 15.6228808,12.6389647 C16.2444294,12.6389647 16.7462003,12.1457985 16.7462003,11.5388247 C16.7462003,9.84119489 16.755912,8.14356506 16.755912,6.44593524 C16.755912,5.6303142 16.7203024,4.43533454 16.3803931,3.68926259 C16.1246518,3.12970862 15.7135233,2.7060915 15.1826173,2.38679799 C14.5804922,2.0264073 13.9136224,1.87782517 13.2143804,1.87782517 C12.5054266,1.87782517 11.8320824,2.02956862 11.2072966,2.35518477 C10.5695619,2.68396224 10.0580793,3.16132184 9.65342534,3.74300506 L9.37178617,4.1539769 L9.13546824,3.71455316 C8.83764291,3.1549992 8.42651447,2.6776396 7.86971059,2.34570081 C7.33233011,2.02324598 6.74315392,1.87782517 6.11189371,1.87782517 C5.48387073,1.87782517 4.87203391,1.99163276 4.29580665,2.24137719 C3.70986768,2.49428293 3.20485952,2.87680288 2.77430768,3.33835586 L2.24987613,3.9073938 L2.24987613,2.97796517 Z" id="Shape"></path>
                        <path d="M34.8067167,11.5388247 C34.8067167,9.58512782 34.8067167,7.63459225 34.8067167,5.68089535 C34.8067167,5.07392156 34.3049458,4.58075535 33.6833973,4.58075535 C33.0618487,4.58075535 32.5568406,5.07392156 32.5568406,5.68089535 C32.5568406,7.63459225 32.5568406,9.58512782 32.5568406,11.5388247 C32.5568406,12.1457985 33.0618487,12.6389647 33.6833973,12.6389647 C34.3049458,12.6389647 34.8067167,12.1457985 34.8067167,11.5388247 Z" id="Shape"></path>
                        <path d="M33.6833973,0.0284518966 C33.2657944,0.0284518966 32.9129361,0.167550058 32.6151108,0.458391667 C32.3172854,0.749233276 32.1748472,1.09381736 32.1748472,1.50162787 C32.1748472,1.92840632 32.3205227,2.28879701 32.6248224,2.59228391 C32.9226478,2.88944816 33.2787433,3.03803029 33.7060579,3.03803029 C34.1236608,3.03803029 34.4668074,2.88944816 34.7613955,2.59860655 C35.062458,2.30460362 35.201659,1.95685822 35.201659,1.54272506 C35.201659,1.12226925 35.0592208,0.768201208 34.7581582,0.467875633 C34.4603329,0.177034023 34.1074746,0.0284518966 33.6833973,0.0284518966 Z" id="Shape"></path>
                    </g>
                    <path d="M42.1519957,15.7781573 C42.3073829,15.7781573 42.4303977,15.9014489 42.4303977,16.0531923 C42.4303977,16.2017744 42.3073829,16.325066 42.1519957,16.325066 C41.9966086,16.325066 41.8703566,16.2017744 41.8703566,16.0531923 C41.8703566,15.9014489 41.9966086,15.7781573 42.1519957,15.7781573 Z M43.0422345,15.7781573 C43.1976216,15.7781573 43.3238737,15.9014489 43.3238737,16.0531923 C43.3238737,16.2017744 43.1976216,16.325066 43.0422345,16.325066 C42.8868474,16.325066 42.7605953,16.2017744 42.7605953,16.0531923 C42.7605953,15.9014489 42.8868474,15.7781573 43.0422345,15.7781573 Z M17.2253106,15.7781573 C17.3806977,15.7781573 17.5069498,15.9014489 17.5069498,16.0531923 C17.5069498,16.2017744 17.3806977,16.325066 17.2253106,16.325066 C17.0699235,16.325066 16.9436714,16.2017744 16.9436714,16.0531923 C16.9436714,15.9014489 17.0699235,15.7781573 17.2253106,15.7781573 Z M18.1155494,15.7781573 C18.2709365,15.7781573 18.3971885,15.9014489 18.3971885,16.0531923 C18.3971885,16.2017744 18.2709365,16.325066 18.1155494,16.325066 C17.9601622,16.325066 17.8371474,16.2017744 17.8371474,16.0531923 C17.8371474,15.9014489 17.9601622,15.7781573 18.1155494,15.7781573 Z M60.8114,18.6834121 C60.8114,18.70238 60.8081628,18.7213479 60.8049256,18.7434772 C60.7984511,18.7719291 60.7855022,18.800381 60.7725533,18.8256716 C60.7498926,18.8572848 60.7207576,18.8857367 60.685148,18.9047046 C60.643064,18.9299952 60.5945055,18.9363178 60.545947,18.9363178 C60.4812024,18.9363178 60.4164578,18.9173499 60.3646621,18.8730914 C60.3063919,18.8256716 60.2837313,18.7561225 60.2837313,18.6834121 L60.2837313,16.6917793 C60.2837313,16.6696501 60.2869685,16.6506821 60.2902057,16.6285529 C60.2966802,16.5969397 60.3096291,16.5684878 60.3290525,16.5400359 C60.3484759,16.5084227 60.377611,16.4831321 60.4132205,16.4673255 C60.4520673,16.4451962 60.5006258,16.4357123 60.545947,16.4357123 C60.5945055,16.4357123 60.643064,16.4451962 60.685148,16.4673255 C60.7207576,16.4894547 60.7498926,16.5147453 60.7725533,16.5495198 C60.7855022,16.5748104 60.7984511,16.600101 60.8049256,16.6317142 C60.8081628,16.6506821 60.8114,16.6696501 60.8114,16.6917793 L60.8114,18.6834121 Z M57.8299095,17.4188833 C57.9011286,17.4378513 57.9723477,17.4599805 58.0403296,17.4852711 C58.1244976,17.5168843 58.2054284,17.5579815 58.2766475,17.6148853 C58.3543411,17.6749504 58.4190857,17.7508221 58.464407,17.8361778 C58.5226771,17.9405015 58.5421005,18.0606317 58.5421005,18.1807619 C58.5421005,18.3103761 58.5162027,18.436829 58.4482208,18.5506366 C58.3899506,18.6486375 58.3090198,18.7276706 58.2119029,18.790897 C58.1147859,18.8478008 58.0111945,18.888898 57.9011286,18.9141886 C57.7975372,18.9363178 57.6907086,18.9489631 57.5838799,18.9489631 C57.4608651,18.9489631 57.3410875,18.9331565 57.2213099,18.9015433 C57.1015324,18.8730914 56.9882292,18.8225102 56.8911123,18.7466385 C56.8328421,18.7055413 56.7810464,18.6517989 56.7389624,18.5948951 C56.7065901,18.5474752 56.6742178,18.4937328 56.6483199,18.4399903 C56.6288965,18.3957318 56.6127104,18.3514733 56.6029987,18.3008921 C56.593287,18.2692789 56.5868125,18.2376657 56.5868125,18.2060525 C56.5868125,18.1554713 56.5997614,18.1048902 56.6288965,18.063793 C56.6515571,18.0353411 56.6806922,18.0068892 56.7163018,17.9879213 C56.7454369,17.9721147 56.7778092,17.9626307 56.8101815,17.9563081 C56.8360794,17.9499854 56.85874,17.9468241 56.8846378,17.9468241 C56.9526197,17.9468241 57.027076,17.9626307 57.06916,18.0163732 C57.0950579,18.0479864 57.1112441,18.0827609 57.1209558,18.1175355 C57.1371419,18.1712779 57.1565653,18.2218591 57.1759887,18.2724402 C57.1921749,18.3198601 57.2374961,18.3577959 57.2763429,18.3830865 C57.3249014,18.4210224 57.3831715,18.4463129 57.4446789,18.4526356 C57.4997119,18.4621196 57.5579821,18.4684422 57.613015,18.4684422 C57.6356756,18.4684422 57.6615735,18.4684422 57.6842341,18.4684422 C57.7101319,18.4652809 57.7360298,18.4621196 57.7619277,18.4589582 C57.7910627,18.4526356 57.8201978,18.4431516 57.8493329,18.4336677 C57.8719935,18.427345 57.8946542,18.4146997 57.9140776,18.3988931 C57.9432126,18.3767639 57.9691105,18.348312 57.9852967,18.3166988 C58.0014828,18.2819242 58.0111945,18.2471497 58.0111945,18.2092138 C58.0111945,18.1744393 58.00472,18.1396647 57.9885339,18.1112128 C57.9723477,18.0890836 57.9529243,18.0606317 57.9302637,18.0416637 C57.8881797,18.0100505 57.8396212,17.98476 57.7910627,17.9689533 C57.7166064,17.9405015 57.6389128,17.9183722 57.5612193,17.8962429 L57.3184269,17.8298552 C57.2698684,17.8172099 57.2245472,17.8014033 57.1759887,17.7855967 C57.1306674,17.7729514 57.0885834,17.7539835 57.0432622,17.7350155 C57.0141271,17.7223702 56.9817548,17.7065636 56.9558569,17.690757 C56.9072985,17.6623051 56.8684517,17.6243693 56.8328421,17.5864334 C56.7907581,17.5358523 56.7583858,17.4757871 56.7324879,17.415722 C56.7001156,17.336689 56.6871667,17.2513333 56.6871667,17.1659776 C56.6871667,17.0648153 56.7065901,16.963653 56.7421996,16.8719747 C56.7810464,16.777135 56.8393166,16.6949406 56.9170101,16.6285529 C57.0011782,16.5558425 57.0982951,16.5084227 57.2018866,16.4736481 C57.3216641,16.4357123 57.4543906,16.4199056 57.5806427,16.4199056 C57.6259639,16.4199056 57.6712852,16.423067 57.7166064,16.4262283 C57.7716394,16.4293896 57.8299095,16.4388736 57.8849425,16.4515189 C57.9464499,16.4641642 58.0079573,16.4831321 58.0662275,16.5084227 C58.1277349,16.5368746 58.1892423,16.5748104 58.241038,16.6190689 C58.2798848,16.6506821 58.3154943,16.6854567 58.3478666,16.7265539 C58.3770017,16.7644897 58.4061368,16.8024256 58.4287974,16.8435228 C58.4482208,16.8814586 58.4676442,16.9225558 58.4805931,16.963653 C58.4935421,16.9984275 58.5032537,17.0363634 58.5032537,17.0774606 C58.5032537,17.1533323 58.4741187,17.2228814 58.409374,17.2734625 C58.3575783,17.3113984 58.2960709,17.3303663 58.228089,17.3303663 C58.198954,17.3303663 58.1665816,17.3240437 58.1374466,17.3145597 C58.0953625,17.2987531 58.059753,17.2671399 58.0338551,17.229204 C58.0209062,17.2102361 58.0111945,17.1881069 57.9982456,17.1659776 C57.9885339,17.1470097 57.9788222,17.1280417 57.9691105,17.1090738 C57.9593988,17.0837832 57.9432126,17.061654 57.9302637,17.0395247 C57.9140776,17.0142342 57.8914169,16.9952662 57.8687563,16.9762983 C57.836384,16.9510077 57.7943,16.9320398 57.7554532,16.9162332 C57.697183,16.8972652 57.6292012,16.8909426 57.5676937,16.8909426 C57.5191353,16.8909426 57.4673396,16.8972652 57.4220183,16.9067492 C57.3831715,16.9162332 57.3507992,16.9288785 57.3216641,16.9510077 C57.292529,16.9699756 57.2731057,16.9952662 57.2536823,17.0237181 C57.2342589,17.0553313 57.2310216,17.0932672 57.2310216,17.1312031 C57.2310216,17.1470097 57.2310216,17.1849455 57.2407333,17.1975908 C57.250445,17.2102361 57.2601567,17.2228814 57.2698684,17.2323654 C57.2957663,17.2544946 57.3378503,17.2703012 57.3734598,17.2797852 C57.4252555,17.2987531 57.4802885,17.3145597 57.5353214,17.3303663 L57.8299095,17.4188833 Z M50.0217063,16.9415237 L49.555545,16.9415237 C49.5361216,16.9415237 49.5199354,16.9415237 49.500512,16.9383624 C49.4713769,16.9352011 49.4422418,16.9225558 49.4131068,16.9035879 C49.3807344,16.88462 49.3580738,16.8561681 49.3386504,16.8245548 C49.319227,16.7834577 49.3127526,16.7423605 49.3127526,16.698102 C49.3127526,16.6538435 49.319227,16.609585 49.3418877,16.5716491 C49.361311,16.5400359 49.3839717,16.5147453 49.4131068,16.4957774 C49.4390046,16.4768094 49.4713769,16.4641642 49.5037492,16.4610028 C49.5199354,16.4578415 49.5393588,16.4546802 49.555545,16.4546802 L51.0122993,16.4546802 C51.0511461,16.4546802 51.0932301,16.4610028 51.1288396,16.4799708 C51.1612119,16.4989387 51.1871098,16.5242293 51.2097704,16.5526812 C51.24538,16.5937783 51.2550917,16.6475208 51.2550917,16.7012633 C51.2550917,16.7455218 51.2486172,16.7897803 51.2259566,16.8277162 C51.2065332,16.8561681 51.1838726,16.88462 51.1547375,16.9035879 C51.1256024,16.9225558 51.0964673,16.9352011 51.064095,16.9383624 C51.0446716,16.9415237 51.0284854,16.9415237 51.0122993,16.9415237 L50.5526124,16.9415237 L50.5526124,18.6834121 C50.5526124,18.70238 50.5493751,18.7245093 50.5461379,18.7434772 C50.5396634,18.7750904 50.5267145,18.8067036 50.5072911,18.8319942 C50.4846305,18.8636074 50.4554954,18.888898 50.4198859,18.9078659 C50.3778018,18.9299952 50.3324806,18.9363178 50.2839221,18.9363178 C50.2386009,18.9363178 50.1932796,18.9299952 50.1511956,18.9078659 C50.1123488,18.888898 50.0832137,18.8636074 50.0605531,18.8288329 C50.044367,18.8035423 50.0346553,18.7719291 50.0281808,18.7434772 C50.0249436,18.7213479 50.0217063,18.70238 50.0217063,18.6834121 L50.0217063,16.9415237 Z M47.2506359,18.790897 C47.2506359,18.790897 47.2506359,18.790897 47.2506359,18.790897 C47.2053146,18.8225102 47.1535189,18.8446395 47.1017232,18.8636074 C47.0369786,18.888898 46.9689967,18.9078659 46.8977776,18.9236725 C46.8103724,18.9426405 46.7164926,18.9489631 46.6258501,18.9489631 C46.4575141,18.9489631 46.2924153,18.9236725 46.1370281,18.8604461 C45.9913527,18.800381 45.8618634,18.7150253 45.7550348,18.604379 C45.6449689,18.4874101 45.5672753,18.3514733 45.5122424,18.2028912 C45.4539722,18.0385024 45.4313116,17.8646297 45.4313116,17.690757 C45.4313116,17.5832721 45.4410233,17.4757871 45.4604467,17.3683022 C45.4798701,17.2576559 45.5187169,17.150171 45.5705126,17.0458474 C45.6125966,16.963653 45.6643923,16.8877813 45.7258997,16.8150709 C45.7906443,16.7391992 45.8683379,16.6728114 45.9525059,16.6159076 C46.0463856,16.5526812 46.1467398,16.5052613 46.2535685,16.4736481 C46.3733461,16.4357123 46.4995981,16.4199056 46.6258501,16.4199056 C46.790949,16.4199056 46.9560478,16.4451962 47.1114349,16.5084227 C47.2571103,16.5653264 47.3865996,16.6506821 47.4934283,16.7644897 C47.6067314,16.8782973 47.684425,17.0173955 47.7394579,17.1659776 C47.8009653,17.3335277 47.8236259,17.513723 47.8236259,17.690757 C47.8236259,17.7508221 47.8203887,17.8108873 47.8171515,17.8709524 C47.810677,17.9341788 47.7977281,18.0005666 47.7815419,18.063793 C47.7556441,18.1681166 47.7167973,18.2756016 47.6617643,18.3704412 C47.6455782,18.3925705 47.629392,18.417861 47.6164431,18.4399903 L47.768593,18.5917338 C47.7912536,18.613863 47.8042025,18.6359923 47.8203887,18.6612828 C47.8365748,18.692896 47.8430493,18.7276706 47.8430493,18.7624451 C47.8430493,18.8288329 47.8139142,18.888898 47.7653557,18.9394792 C47.71356,18.986899 47.6520526,19.0153509 47.5840708,19.0153509 C47.5419868,19.0153509 47.50314,19.0058669 47.4707676,18.9837377 C47.448107,18.9710924 47.4286836,18.9616084 47.4092602,18.9426405 L47.2506359,18.790897 Z M42.5987337,16.4199056 C42.6893762,16.4199056 42.7800187,16.4325509 42.8706612,16.4451962 C42.9969133,16.4673255 43.1166908,16.511584 43.2267567,16.5748104 C43.3497715,16.6443595 43.4598374,16.7360378 43.5440054,16.8466841 C43.6152245,16.9415237 43.6767319,17.0458474 43.7155787,17.159655 C43.747951,17.2544946 43.7738489,17.3524956 43.7835606,17.4536579 C43.7900351,17.5263683 43.7965095,17.5990787 43.7965095,17.6717891 C43.7965095,17.7855967 43.7867978,17.8994043 43.7609,18.0100505 C43.7350021,18.1396647 43.6864436,18.2629563 43.621699,18.3799252 C43.5569544,18.4905715 43.4760236,18.5917338 43.3756694,18.6770894 C43.272078,18.7656065 43.1555376,18.8319942 43.0292856,18.8762527 C42.8933218,18.9268339 42.7508836,18.9489631 42.6052082,18.9489631 C42.4433466,18.9489631 42.2847222,18.9236725 42.1358096,18.8699301 C41.9868969,18.8161876 41.8574076,18.7339932 41.7473418,18.623347 C41.6308014,18.5127007 41.5466334,18.3736025 41.4883632,18.2250204 C41.4203813,18.054309 41.3977207,17.8709524 41.3977207,17.6875957 C41.3977207,17.504239 41.4236186,17.3208824 41.4916004,17.1533323 C41.5498706,17.0047502 41.6340386,16.8688133 41.750579,16.7518444 C41.8606449,16.6443595 41.9901342,16.5621651 42.1358096,16.5052613 C42.2847222,16.4483575 42.4401094,16.4199056 42.5987337,16.4199056 Z M38.1799123,17.4125607 L38.1863867,18.6865734 C38.1863867,18.7087027 38.1831495,18.7276706 38.1799123,18.7497998 C38.1734378,18.7782517 38.1604889,18.8067036 38.1443027,18.8319942 C38.1248793,18.8636074 38.0957443,18.888898 38.0633719,18.9078659 C38.0212879,18.9299952 37.9727294,18.9363178 37.9274082,18.9363178 C37.8788497,18.9363178 37.8302912,18.9299952 37.7882072,18.9078659 C37.7558349,18.8920593 37.7234626,18.8667688 37.7040392,18.8383169 C37.6846158,18.8130263 37.6716669,18.7845744 37.6651924,18.7529612 C37.6619552,18.7308319 37.658718,18.7087027 37.658718,18.6897347 L37.658718,16.6949406 C37.658718,16.6728114 37.658718,16.6506821 37.6619552,16.6317142 C37.6684296,16.5937783 37.6846158,16.5590038 37.7105137,16.5305519 C37.7493604,16.4831321 37.8043934,16.4515189 37.869138,16.4420349 C37.9015103,16.4388736 37.9306454,16.4325509 37.9630177,16.4325509 C38.0180507,16.4325509 38.0763209,16.4420349 38.1216421,16.4736481 C38.1540144,16.4957774 38.1831495,16.5210679 38.2025729,16.5526812 L39.167268,17.9499854 C39.1640308,17.9183722 39.1640308,17.8835977 39.1640308,17.8519844 L39.1575563,16.6822954 C39.1575563,16.6601661 39.1607935,16.6380369 39.1640308,16.6190689 C39.1705052,16.5874557 39.1834541,16.5621651 39.1996403,16.5368746 C39.2223009,16.5021 39.2546732,16.4799708 39.2902828,16.4610028 C39.3323668,16.4420349 39.3776881,16.4357123 39.4197721,16.4357123 C39.4683305,16.4357123 39.5136518,16.4451962 39.5524986,16.4673255 C39.5848709,16.4831321 39.614006,16.5052613 39.6334294,16.5368746 C39.6528528,16.5621651 39.6658017,16.590617 39.6722762,16.6222302 C39.6755134,16.6411982 39.6787506,16.6601661 39.6787506,16.6822954 L39.6787506,18.6865734 C39.6787506,18.7055413 39.6755134,18.7276706 39.6722762,18.7466385 C39.6658017,18.7782517 39.6496155,18.8067036 39.6301921,18.8351555 C39.6075315,18.8667688 39.5783964,18.888898 39.5427869,18.9078659 C39.4974656,18.9299952 39.4456699,18.9363178 39.3938742,18.9363178 C39.3388413,18.9363178 39.2773339,18.9299952 39.2287754,18.898382 C39.1996403,18.879414 39.1705052,18.8541235 39.1510818,18.8225102 L38.231708,17.4852711 C38.2155218,17.4631419 38.1993357,17.4378513 38.1799123,17.4125607 Z M30.3587602,17.6623051 L29.8990732,18.7940583 C29.8861243,18.8288329 29.8667009,18.8572848 29.8408031,18.8825754 C29.7922446,18.9299952 29.7177883,18.9363178 29.6530436,18.9363178 C29.5915362,18.9363178 29.5235543,18.9268339 29.4749959,18.8825754 C29.449098,18.8572848 29.4264374,18.8288329 29.4134885,18.7940583 L28.9505643,17.6496598 L28.9667505,18.6865734 C28.9667505,18.7087027 28.9635132,18.7276706 28.960276,18.7497998 C28.9538015,18.7782517 28.9408526,18.8067036 28.9246665,18.8319942 C28.9052431,18.8636074 28.876108,18.888898 28.8404984,18.9078659 C28.8016516,18.9299952 28.7563304,18.9363178 28.7077719,18.9363178 C28.6656879,18.9363178 28.6203667,18.9299952 28.5782827,18.9110273 C28.5426731,18.8952206 28.5103008,18.8699301 28.4876402,18.8351555 C28.471454,18.809865 28.4585051,18.7814131 28.4520306,18.7529612 C28.4487934,18.7308319 28.4455561,18.711864 28.4455561,18.692896 L28.4455561,16.6949406 C28.4455561,16.6696501 28.4487934,16.6411982 28.4552678,16.6159076 C28.4649795,16.5779717 28.4876402,16.5431972 28.5167752,16.511584 C28.5653337,16.4641642 28.5361986,16.492616 28.5879943,16.4673255 C28.6397901,16.4388736 28.7110092,16.4325509 28.7725166,16.4325509 C28.8437357,16.4325509 28.9343782,16.4388736 28.9894111,16.4862934 C29.0282579,16.5179066 29.057393,16.5558425 29.0768164,16.600101 L29.6659925,18.0764383 L30.245457,16.600101 C30.2648804,16.5590038 30.2940155,16.5210679 30.3296251,16.4894547 C30.3878952,16.4420349 30.4785377,16.4325509 30.5529941,16.4325509 C30.6015525,16.4325509 30.6533483,16.4388736 30.7019067,16.4546802 C30.7439908,16.4673255 30.7828375,16.4894547 30.8119726,16.5179066 C30.8378705,16.5463585 30.8572939,16.5811331 30.8637683,16.6159076 C30.8702428,16.6411982 30.87348,16.6696501 30.87348,16.6949406 L30.87348,18.6897347 C30.87348,18.7087027 30.87348,18.7276706 30.8670056,18.7497998 C30.8605311,18.7782517 30.8508194,18.8067036 30.831396,18.8319942 C30.8119726,18.8636074 30.7828375,18.888898 30.7504652,18.9078659 C30.7083812,18.9299952 30.6598227,18.9363178 30.6145015,18.9363178 C30.5497568,18.9363178 30.4850122,18.9205112 30.4332165,18.879414 C30.3717091,18.8319942 30.3490485,18.7624451 30.3490485,18.6865734 L30.3587602,17.6623051 Z M20.8542475,18.9173499 C20.8348241,18.9173499 20.8154007,18.9173499 20.7959773,18.9141886 C20.763605,18.9110273 20.7312327,18.898382 20.7020976,18.8825754 C20.6697253,18.8604461 20.6405902,18.8319942 20.6211668,18.7972197 C20.5985062,18.7561225 20.5887945,18.7087027 20.5887945,18.6612828 L20.5887945,16.7107473 C20.5887945,16.6443595 20.6049806,16.5779717 20.6503019,16.5273906 C20.7020976,16.4704868 20.7765539,16.4515189 20.8542475,16.4515189 L21.4434237,16.4515189 C21.5211172,16.4515189 21.5988108,16.4546802 21.6765044,16.4578415 C21.7574352,16.4641642 21.8416032,16.4768094 21.922534,16.4957774 C22.006702,16.5147453 22.0843956,16.5463585 22.1620892,16.5874557 C22.2462572,16.6285529 22.3207135,16.688618 22.3854581,16.7581671 C22.4502028,16.8213935 22.5052357,16.8972652 22.5473197,16.9794596 C22.5861665,17.0553313 22.6153016,17.1343644 22.6379622,17.2133974 C22.6606229,17.2892692 22.676809,17.3683022 22.6832835,17.4473352 C22.6929952,17.5200456 22.6962324,17.5895947 22.6962324,17.6623051 C22.6962324,17.8488231 22.6735718,18.0416637 22.6088271,18.2186978 C22.5570314,18.3641186 22.4793379,18.5063781 22.3660348,18.613863 C22.2948157,18.6865734 22.2138849,18.7466385 22.1200051,18.7877357 C22.0358371,18.8288329 21.9484319,18.8572848 21.8577894,18.879414 C21.7736213,18.898382 21.6862161,18.9078659 21.5988108,18.9141886 C21.5211172,18.9173499 21.4466609,18.9173499 21.3722046,18.9173499 L20.8542475,18.9173499 Z M17.6720486,16.4199056 C17.7626911,16.4199056 17.8565708,16.4325509 17.9439761,16.4451962 C18.0702281,16.4673255 18.1900057,16.511584 18.3000716,16.5748104 C18.4230864,16.6443595 18.5331523,16.7360378 18.6173203,16.8466841 C18.6885394,16.9415237 18.7500468,17.0458474 18.7888936,17.159655 C18.8212659,17.2544946 18.8471638,17.3524956 18.8568754,17.4536579 C18.8633499,17.5263683 18.8698244,17.5990787 18.8698244,17.6717891 C18.8698244,17.7855967 18.8601127,17.8994043 18.8374521,18.0100505 C18.808317,18.1396647 18.7629957,18.2629563 18.6950139,18.3799252 C18.6302692,18.4905715 18.5493384,18.5917338 18.4489842,18.6770894 C18.34863,18.7656065 18.2288525,18.8319942 18.1026004,18.8762527 C17.9666367,18.9268339 17.8241985,18.9489631 17.6785231,18.9489631 C17.5166615,18.9489631 17.3580371,18.9236725 17.2091244,18.8699301 C17.0602118,18.8161876 16.9307225,18.7339932 16.8206566,18.623347 C16.7041163,18.5127007 16.6199482,18.3736025 16.5616781,18.2250204 C16.4936962,18.054309 16.4710356,17.8709524 16.4710356,17.6875957 C16.4710356,17.504239 16.4969334,17.3208824 16.5649153,17.1533323 C16.6231855,17.0047502 16.7105907,16.8688133 16.8238939,16.7518444 C16.9339597,16.6443595 17.063449,16.5621651 17.2091244,16.5052613 C17.3580371,16.4483575 17.5134242,16.4199056 17.6720486,16.4199056 Z M13.8003193,18.6834121 C13.8003193,18.70238 13.7970821,18.7213479 13.7938449,18.7434772 C13.7873704,18.7719291 13.7776587,18.800381 13.7614725,18.8256716 C13.7420491,18.8572848 13.7096768,18.8857367 13.6773045,18.9047046 C13.6352205,18.9299952 13.586662,18.9363178 13.5381035,18.9363178 C13.4701217,18.9363178 13.4086143,18.9173499 13.3568186,18.8730914 C13.2985484,18.8256716 13.2726505,18.7561225 13.2726505,18.6834121 L13.2726505,16.6917793 C13.2726505,16.6696501 13.2758878,16.6506821 13.279125,16.6317142 C13.2855995,16.5969397 13.2985484,16.5684878 13.3179718,16.5400359 C13.3406324,16.5084227 13.3697675,16.4831321 13.4021398,16.4673255 C13.4442238,16.4451962 13.4895451,16.4357123 13.5381035,16.4357123 C13.586662,16.4357123 13.6352205,16.4451962 13.6773045,16.4673255 C13.7096768,16.4894547 13.7420491,16.5147453 13.7614725,16.5495198 C13.7776587,16.5748104 13.7873704,16.600101 13.7938449,16.6317142 C13.7970821,16.6506821 13.8003193,16.6696501 13.8003193,16.6917793 L13.8003193,18.6834121 Z M10.5242407,18.4241837 L11.492173,18.4241837 C11.5115964,18.4241837 11.5310198,18.427345 11.547206,18.427345 C11.5795783,18.4336677 11.6119506,18.4431516 11.6378485,18.4621196 C11.6702208,18.4810875 11.6961186,18.5095394 11.7123048,18.5443139 C11.7349654,18.5822498 11.7414399,18.6265083 11.7414399,18.6676055 C11.7414399,18.7150253 11.7317282,18.7592838 11.7090676,18.7972197 C11.6928814,18.8288329 11.6702208,18.8572848 11.6378485,18.8762527 C11.6119506,18.8952206 11.5795783,18.9078659 11.5439687,18.9141886 C11.5277826,18.9141886 11.5115964,18.9173499 11.492173,18.9173499 L10.2523132,18.9173499 C10.2264154,18.9173499 10.2037547,18.9141886 10.1778569,18.9110273 C10.1454846,18.9047046 10.1131123,18.8920593 10.0839772,18.8730914 C10.0516049,18.8478008 10.025707,18.8193489 10.0095208,18.7845744 C9.99333468,18.7434772 9.98686022,18.70238 9.98686022,18.6612828 L9.98686022,16.688618 C9.98686022,16.6664887 9.99009745,16.6475208 9.99657191,16.6285529 C10.0030464,16.5969397 10.0159953,16.5653264 10.0321815,16.5400359 C10.0548421,16.5084227 10.0872144,16.4831321 10.1195867,16.4641642 C10.1616707,16.4451962 10.2102292,16.4357123 10.2555505,16.4357123 C10.3008717,16.4357123 10.3494302,16.4451962 10.3915142,16.4641642 C10.4238865,16.4831321 10.4530216,16.5052613 10.4756822,16.5368746 C10.4951056,16.5621651 10.5112918,16.5937783 10.5177662,16.6285529 C10.5210035,16.6475208 10.5242407,16.6664887 10.5242407,16.688618 L10.5242407,18.4241837 Z M7.23845039,18.4241837 L8.20638271,18.4241837 C8.2258061,18.4241837 8.24522949,18.427345 8.26141565,18.427345 C8.29378796,18.4336677 8.32616028,18.4431516 8.35205814,18.4621196 C8.38443046,18.4810875 8.41032831,18.5095394 8.4297517,18.5443139 C8.44917509,18.5822498 8.45564956,18.6265083 8.45564956,18.6676055 C8.45564956,18.7150253 8.44917509,18.7592838 8.42651447,18.7972197 C8.40709108,18.8288329 8.38443046,18.8572848 8.35529537,18.8762527 C8.32616028,18.8952206 8.29378796,18.9078659 8.26141565,18.9141886 C8.24199226,18.9141886 8.2258061,18.9173499 8.20638271,18.9173499 L6.96652291,18.9173499 C6.94386229,18.9173499 6.91796443,18.9141886 6.89530381,18.9110273 C6.85969426,18.9047046 6.82732194,18.8920593 6.79818686,18.8730914 C6.76581454,18.8478008 6.74315392,18.8193489 6.72696776,18.7845744 C6.70754437,18.7434772 6.70430713,18.70238 6.70430713,18.6612828 L6.70430713,16.688618 C6.70430713,16.6664887 6.70754437,16.6475208 6.7107816,16.6285529 C6.71725606,16.5969397 6.73020499,16.5684878 6.74962838,16.5400359 C6.76905177,16.5084227 6.80142409,16.4831321 6.83703364,16.4641642 C6.87588042,16.4451962 6.9244389,16.4357123 6.96976014,16.4357123 C7.01831862,16.4357123 7.06363987,16.4451962 7.10572388,16.4641642 C7.1380962,16.4831321 7.17046852,16.5052613 7.18989191,16.5368746 C7.21255253,16.5621651 7.22550146,16.5937783 7.23197592,16.6285529 C7.23521315,16.6475208 7.23845039,16.6664887 7.23845039,16.688618 L7.23845039,18.4241837 Z M4.8299499,18.6834121 C4.8299499,18.70238 4.82671267,18.7213479 4.82347544,18.7434772 C4.81700097,18.7719291 4.80405205,18.800381 4.78786589,18.8256716 C4.7684425,18.8604461 4.73930741,18.8857367 4.70369786,18.9047046 C4.66161384,18.9299952 4.61305537,18.9363178 4.56449689,18.9363178 C4.49651502,18.9363178 4.43500762,18.9173499 4.38321191,18.8730914 C4.32494173,18.8256716 4.30228111,18.7561225 4.30228111,18.6834121 L4.30228111,16.6917793 C4.30228111,16.6696501 4.30228111,16.6506821 4.30875557,16.6285529 C4.31199281,16.5969397 4.32817897,16.5684878 4.34436512,16.5400359 C4.36702575,16.5084227 4.39616083,16.4831321 4.42853315,16.4673255 C4.47061717,16.4451962 4.51917564,16.4357123 4.56449689,16.4357123 C4.61305537,16.4357123 4.66161384,16.4451962 4.70369786,16.4673255 C4.73930741,16.4894547 4.7684425,16.5147453 4.78786589,16.5495198 C4.80405205,16.5748104 4.81700097,16.600101 4.82347544,16.6317142 C4.82671267,16.6506821 4.8299499,16.6696501 4.8299499,16.6917793 L4.8299499,18.6834121 Z M1.91320402,17.6623051 L1.45351709,18.7940583 C1.44056817,18.8288329 1.42114478,18.8572848 1.39524692,18.8825754 C1.34668844,18.9299952 1.27223211,18.9363178 1.20748747,18.9363178 C1.14598007,18.9363178 1.0779982,18.9268339 1.03267696,18.8825754 C1.00354187,18.8572848 0.980881246,18.8288329 0.967932319,18.7940583 L0.505008166,17.6528212 L0.521194326,18.6865734 C0.521194326,18.7087027 0.517957094,18.7276706 0.514719862,18.7497998 C0.508245398,18.7782517 0.495296471,18.8067036 0.479110312,18.8319942 C0.459686921,18.8636074 0.430551834,18.888898 0.394942284,18.9078659 C0.356095502,18.9299952 0.310774256,18.9363178 0.265453011,18.9363178 C0.220131765,18.9363178 0.174810519,18.9299952 0.132726505,18.9110273 C0.0971169551,18.8952206 0.0647446367,18.8699301 0.0420840139,18.8351555 C0.0258978547,18.809865 0.0129489273,18.7814131 0.00647446367,18.7529612 C0.00323723184,18.7308319 0,18.711864 0,18.692896 L0,16.6949406 C0,16.6696501 0.00323723184,16.6411982 0.00971169551,16.6159076 C0.019423391,16.5779717 0.0420840139,16.5431972 0.0712191004,16.511584 C0.119777578,16.4641642 0.0938797233,16.492616 0.142438201,16.4673255 C0.19423391,16.4388736 0.265453011,16.4325509 0.326960415,16.4325509 C0.398179516,16.4325509 0.488822007,16.4388736 0.54709218,16.4862934 C0.582701731,16.5179066 0.611836817,16.5558425 0.631260208,16.600101 L1.2204364,18.0764383 L1.7999009,16.600101 C1.81932429,16.5590038 1.84845938,16.5210679 1.88406893,16.4894547 C1.9423391,16.4420349 2.03298159,16.4325509 2.10743793,16.4325509 C2.1559964,16.4325509 2.21102934,16.4388736 2.25635059,16.4546802 C2.2984346,16.4673255 2.33728139,16.4894547 2.36641647,16.5179066 C2.39231433,16.5463585 2.41173772,16.5811331 2.42144941,16.6159076 C2.42792388,16.6411982 2.43116111,16.6696501 2.43116111,16.6949406 L2.43116111,18.6897347 C2.43116111,18.7087027 2.42792388,18.7308319 2.42144941,18.7497998 C2.41497495,18.7782517 2.40526325,18.8067036 2.3890771,18.8319942 C2.36641647,18.8636074 2.33728139,18.888898 2.30490907,18.9078659 C2.26282505,18.9299952 2.21426658,18.9363178 2.16894533,18.9363178 C2.10420069,18.9363178 2.03945606,18.9205112 1.98766035,18.879414 C1.92939017,18.8319942 1.90349232,18.7624451 1.90349232,18.6865734 L1.91320402,17.6623051 Z M26.153596,17.4220447 C26.1471215,17.3904315 26.1374098,17.3556569 26.1244609,17.3240437 C26.0920886,17.238688 26.0467674,17.1564936 25.98526,17.0869446 C25.9269898,17.0268794 25.8590079,16.9794596 25.7813143,16.9478464 C25.7003835,16.9130719 25.6129783,16.8972652 25.525573,16.8972652 C25.4349305,16.8972652 25.3475253,16.9130719 25.2665945,16.9510077 C25.1889009,16.9826209 25.1209191,17.0332021 25.0626489,17.0964285 C25.0432255,17.1185578 25.0238021,17.1343644 25.0011415,17.150171 C24.9752436,17.1659776 24.9461085,17.1786229 24.9169734,17.1849455 C24.8781267,17.1944295 24.8392799,17.1912682 24.8004331,17.1817842 C24.7551119,17.1691389 24.7162651,17.1438483 24.6806555,17.1090738 C24.6482832,17.0774606 24.6256226,17.0395247 24.6126737,16.9984275 C24.5964875,16.9478464 24.5964875,16.8909426 24.6191481,16.8403615 C24.6353343,16.8087482 24.6547577,16.7802963 24.6806555,16.7518444 C24.7907214,16.6443595 24.9202107,16.5621651 25.0658861,16.5052613 C25.2147988,16.4483575 25.3701859,16.4199056 25.5288103,16.4199056 C25.6194528,16.4199056 25.7100952,16.4325509 25.8007377,16.4451962 C25.9269898,16.4673255 26.0467674,16.511584 26.1568332,16.5748104 C26.279848,16.6443595 26.3899139,16.7360378 26.474082,16.8466841 C26.5453011,16.9446851 26.6035712,17.0458474 26.6456552,17.159655 C26.6780276,17.2544946 26.7039254,17.3524956 26.7136371,17.4536579 C26.7201116,17.5263683 26.726586,17.5990787 26.726586,17.6717891 C26.726586,17.7855967 26.7168743,17.8994043 26.6909765,18.0100505 C26.6650786,18.1396647 26.6165202,18.2629563 26.5517755,18.3799252 C26.4870309,18.4905715 26.4028629,18.5917338 26.3057459,18.6770894 C26.2021545,18.7656065 26.0856141,18.8319942 25.9593621,18.8762527 C25.8233984,18.9268339 25.6809602,18.9489631 25.5352847,18.9489631 C25.3734231,18.9489631 25.2147988,18.9236725 25.0658861,18.8699301 C24.9169734,18.8161876 24.7874842,18.7339932 24.6774183,18.623347 C24.5608779,18.5127007 24.4767099,18.3736025 24.4184397,18.2250204 C24.3504579,18.054309 24.3277973,17.8709524 24.3277973,17.6875957 C24.3277973,17.6781117 24.3277973,17.6717891 24.3277973,17.6654665 C24.3277973,17.5801108 24.3569323,17.504239 24.4346259,17.4599805 C24.4572865,17.4441739 24.4864216,17.43469 24.5123195,17.4283673 C24.5317429,17.425206 24.5511662,17.4220447 24.5705896,17.4220447 L26.153596,17.4220447 Z M34.4182489,17.4220447 C34.4117744,17.3904315 34.4020627,17.3556569 34.3891138,17.3240437 C34.3567415,17.238688 34.3114202,17.1564936 34.2466756,17.0869446 C34.1916427,17.0268794 34.1236608,16.9794596 34.0459672,16.9478464 C33.9617992,16.9130719 33.8776312,16.8972652 33.7869887,16.8972652 C33.6995834,16.8972652 33.6121782,16.9130719 33.5312474,16.9510077 C33.4503166,16.9826209 33.3823347,17.0332021 33.3273018,17.0964285 C33.3078784,17.1185578 33.288455,17.1343644 33.2625571,17.150171 C33.2398965,17.1659776 33.2107614,17.1786229 33.1816263,17.1849455 C33.1427795,17.1944295 33.1039328,17.1912682 33.065086,17.1817842 C33.0165275,17.1691389 32.9776807,17.1438483 32.9453084,17.1090738 C32.9129361,17.0774606 32.8902755,17.0395247 32.8773265,16.9984275 C32.8611404,16.9478464 32.8579031,16.8909426 32.8805638,16.8403615 C32.8967499,16.8087482 32.9194105,16.7802963 32.9453084,16.7518444 C33.0553743,16.6443595 33.1848636,16.5621651 33.3273018,16.5052613 C33.4762144,16.4483575 33.6316015,16.4199056 33.7902259,16.4199056 C33.8841056,16.4199056 33.9747481,16.4325509 34.0653906,16.4451962 C34.1916427,16.4673255 34.3114202,16.511584 34.4214861,16.5748104 C34.5445009,16.6443595 34.6513296,16.7360378 34.7387348,16.8466841 C34.8099539,16.9415237 34.8682241,17.0458474 34.9070709,17.159655 C34.9426804,17.2544946 34.9653411,17.3524956 34.9750528,17.4536579 C34.9847645,17.5263683 34.9912389,17.5990787 34.9912389,17.6717891 C34.9912389,17.7855967 34.97829,17.8994043 34.9556294,18.0100505 C34.9264943,18.1396647 34.881173,18.2629563 34.8131912,18.3799252 C34.7484465,18.4905715 34.6675157,18.5917338 34.5671615,18.6770894 C34.4668074,18.7656065 34.350267,18.8319942 34.224015,18.8762527 C34.0880512,18.9268339 33.9423758,18.9489631 33.7967004,18.9489631 C33.638076,18.9489631 33.4794517,18.9236725 33.3273018,18.8699301 C33.1816263,18.8161876 33.0488998,18.7339932 32.9388339,18.623347 C32.8255308,18.5127007 32.7413628,18.3736025 32.6830926,18.2250204 C32.6151108,18.054309 32.5892129,17.8709524 32.5892129,17.6875957 C32.5892129,17.6781117 32.5892129,17.6717891 32.5892129,17.6654665 C32.5892129,17.5801108 32.618348,17.504239 32.6960415,17.4599805 C32.7219394,17.4441739 32.7478373,17.43469 32.7769723,17.4283673 C32.7963957,17.425206 32.8158191,17.4220447 32.8352425,17.4220447 L34.4182489,17.4220447 Z M54.4372906,17.4220447 C54.4308161,17.3904315 54.4211044,17.3556569 54.4081555,17.3240437 C54.3757832,17.238688 54.3304619,17.1564936 54.2689545,17.0869446 C54.2106843,17.0268794 54.1427025,16.9794596 54.0650089,16.9478464 C53.9840781,16.9130719 53.8966728,16.8972652 53.8092676,16.8972652 C53.7186251,16.8972652 53.6312198,16.9130719 53.550289,16.9510077 C53.4693582,16.9826209 53.4046136,17.0332021 53.3463434,17.0964285 C53.32692,17.1185578 53.3074967,17.1343644 53.2815988,17.150171 C53.2589382,17.1659776 53.2298031,17.1786229 53.200668,17.1849455 C53.1618212,17.1944295 53.1229744,17.1912682 53.0841277,17.1817842 C53.0388064,17.1691389 52.9967224,17.1438483 52.9643501,17.1090738 C52.9319778,17.0774606 52.9093171,17.0395247 52.8963682,16.9984275 C52.880182,16.9478464 52.880182,16.8909426 52.9028427,16.8403615 C52.9157916,16.8087482 52.9384522,16.7802963 52.9643501,16.7518444 C53.074416,16.6443595 53.2039052,16.5621651 53.3495807,16.5052613 C53.4952561,16.4483575 53.6538805,16.4199056 53.8125048,16.4199056 C53.9031473,16.4199056 53.9937898,16.4325509 54.0844323,16.4451962 C54.2106843,16.4673255 54.3304619,16.511584 54.4405278,16.5748104 C54.5635426,16.6443595 54.6736085,16.7360378 54.7577765,16.8466841 C54.8289956,16.9446851 54.8872658,17.0458474 54.9261126,17.159655 C54.9617221,17.2544946 54.98762,17.3524956 54.9973317,17.4536579 C55.0038061,17.5263683 55.0102806,17.5990787 55.0102806,17.6717891 C55.0102806,17.7855967 55.0005689,17.8994043 54.974671,18.0100505 C54.945536,18.1396647 54.9002147,18.2629563 54.8354701,18.3799252 C54.7707254,18.4905715 54.6865574,18.5917338 54.5894405,18.6770894 C54.485849,18.7656065 54.3693087,18.8319942 54.2430567,18.8762527 C54.1070929,18.9268339 53.9614175,18.9489631 53.8189793,18.9489631 C53.6571177,18.9489631 53.4984933,18.9236725 53.3463434,18.8699301 C53.200668,18.8161876 53.0679415,18.7339932 52.9578756,18.623347 C52.8445725,18.5127007 52.7604045,18.3736025 52.7021343,18.2250204 C52.6341524,18.054309 52.6082546,17.8709524 52.6082546,17.6875957 C52.6082546,17.6781117 52.6082546,17.6717891 52.6082546,17.6654665 C52.6114918,17.5801108 52.6373897,17.504239 52.7183205,17.4599805 C52.7409811,17.4441739 52.7668789,17.43469 52.796014,17.4283673 C52.8154374,17.425206 52.8348608,17.4220447 52.8542842,17.4220447 L54.4372906,17.4220447 Z M4.56449689,15.7781573 C4.71988402,15.7781573 4.84613606,15.9014489 4.84613606,16.0531923 C4.84613606,16.2017744 4.71988402,16.325066 4.56449689,16.325066 C4.40910976,16.325066 4.28285772,16.2017744 4.28285772,16.0531923 C4.28285772,15.9014489 4.40910976,15.7781573 4.56449689,15.7781573 Z M13.5381035,15.7781573 C13.6934907,15.7781573 13.8165055,15.9014489 13.8165055,16.0531923 C13.8165055,16.2017744 13.6934907,16.325066 13.5381035,16.325066 C13.3827164,16.325066 13.2564644,16.2017744 13.2564644,16.0531923 C13.2564644,15.9014489 13.3827164,15.7781573 13.5381035,15.7781573 Z M60.545947,15.7781573 C60.7013342,15.7781573 60.8275862,15.9014489 60.8275862,16.0531923 C60.8275862,16.2017744 60.7013342,16.325066 60.545947,16.325066 C60.3937971,16.325066 60.2675451,16.2017744 60.2675451,16.0531923 C60.2675451,15.9014489 60.3937971,15.7781573 60.545947,15.7781573 Z M47.2150263,18.0448251 C47.2279753,18.0100505 47.237687,17.9784373 47.2473987,17.9436628 C47.2700593,17.8519844 47.279771,17.7571448 47.279771,17.6623051 C47.279771,17.5484975 47.266822,17.4378513 47.2279753,17.3303663 C47.1988402,17.2450106 47.1535189,17.1628163 47.0920115,17.0932672 C47.0337414,17.0300408 46.9657595,16.9794596 46.8880659,16.9478464 C46.8038979,16.9099105 46.7164926,16.8941039 46.6258501,16.8941039 C46.5384449,16.8941039 46.4542769,16.9130719 46.3733461,16.9446851 C46.2956525,16.9794596 46.2276706,17.0268794 46.1694005,17.0901059 C46.107893,17.1628163 46.0625718,17.248172 46.0301995,17.336689 C45.9881155,17.4473352 45.9751665,17.5674655 45.9751665,17.6844344 C45.9751665,17.7919193 45.9881155,17.9025656 46.0204878,18.0100505 C46.0463856,18.0985675 46.0852324,18.1839232 46.1467398,18.2566336 C46.2017728,18.3230214 46.2697546,18.3767639 46.3506854,18.4146997 C46.4348535,18.4557969 46.5319704,18.4716035 46.6290874,18.4716035 C46.6970692,18.4716035 46.778,18.4652809 46.8395074,18.436829 C46.8524564,18.4336677 46.8621681,18.427345 46.875117,18.4241837 L46.8233213,18.3736025 C46.7844745,18.3356667 46.7618139,18.2850855 46.7618139,18.2313431 C46.7618139,18.1934072 46.7715256,18.1586327 46.7877117,18.1270194 C46.8038979,18.0985675 46.8233213,18.073277 46.8427447,18.0511477 C46.8686425,18.0258571 46.8977776,18.0037279 46.9269127,17.9879213 C46.9625223,17.9689533 47.001369,17.9594694 47.043453,17.9594694 C47.1017232,17.9594694 47.0628764,17.9499854 47.1211466,17.975276 C47.14057,17.98476 47.1567562,17.9942439 47.1729423,18.0037279 L47.182654,18.0100505 L47.2150263,18.0448251 Z M43.2494173,17.6591438 C43.2494173,17.5453362 43.2364684,17.4315286 43.1943844,17.3240437 C43.1620121,17.238688 43.1166908,17.1564936 43.0551834,17.0869446 C42.9969133,17.0268794 42.9289314,16.9794596 42.8512378,16.9478464 C42.770307,16.9130719 42.6829018,16.8972652 42.5954965,16.8972652 C42.504854,16.8972652 42.420686,16.9130719 42.336518,16.9510077 C42.2588244,16.9826209 42.1908425,17.0332021 42.1325724,17.0964285 C42.0710649,17.1659776 42.0257437,17.2513333 41.9966086,17.3398503 C41.9577618,17.4441739 41.9448129,17.5579815 41.9448129,17.6717891 C41.9448129,17.788758 41.9577618,17.9088882 41.9933714,18.0226958 C42.0225065,18.1112128 42.0678277,18.1965685 42.1293351,18.2692789 C42.1843681,18.3356667 42.2491127,18.3830865 42.3268063,18.417861 C42.4109743,18.4526356 42.5016168,18.4684422 42.5922593,18.4684422 C42.6990879,18.4684422 42.8059166,18.4526356 42.8997963,18.3988931 C42.9807271,18.3514733 43.048709,18.2882469 43.1005047,18.2123751 C43.1523004,18.1333421 43.1911472,18.0448251 43.2138078,17.9499854 C43.2364684,17.8551458 43.2494173,17.7571448 43.2494173,17.6591438 Z M21.1197005,18.4336677 L21.2394781,18.4336677 C21.3398323,18.4336677 21.4369492,18.4305063 21.5373034,18.427345 C21.6117597,18.4241837 21.6862161,18.4146997 21.7606724,18.3957318 C21.8157053,18.3799252 21.8707383,18.3577959 21.9192968,18.3198601 C21.9710925,18.2819242 22.0131765,18.2313431 22.0455488,18.1744393 C22.0714467,18.1365034 22.0908701,18.0954062 22.103819,18.0511477 C22.1167679,18.0037279 22.1297168,17.9563081 22.1394285,17.9088882 C22.1491402,17.8646297 22.1523775,17.8203712 22.1556147,17.7761127 C22.1588519,17.7381769 22.1620892,17.700241 22.1620892,17.6623051 C22.1620892,17.5801108 22.1523775,17.5010777 22.1394285,17.4220447 C22.1232424,17.3430116 22.0973445,17.2703012 22.0584977,17.2007521 C22.0293626,17.150171 21.9969903,17.1059125 21.9516691,17.0711379 C21.9128223,17.0395247 21.8707383,17.0110728 21.825417,16.9921049 C21.783333,16.9762983 21.741249,16.963653 21.6959278,16.9573304 C21.6473693,16.9510077 21.602048,16.9446851 21.5534896,16.9383624 C21.5146428,16.9352011 21.475796,16.9352011 21.4401865,16.9352011 C21.3883907,16.9352011 21.3398323,16.9352011 21.2880366,16.9352011 L21.1197005,16.9352011 L21.1197005,18.4336677 Z M18.3227322,17.6591438 C18.3227322,17.5453362 18.3097833,17.4315286 18.2709365,17.3240437 C18.2385642,17.238688 18.1932429,17.1564936 18.1284983,17.0869446 C18.0702281,17.0268794 18.0054835,16.9794596 17.9245527,16.9478464 C17.8436219,16.9130719 17.7562166,16.8972652 17.6688114,16.8972652 C17.5781689,16.8972652 17.4940008,16.9130719 17.4098328,16.9510077 C17.3321393,16.9826209 17.2641574,17.0332021 17.2058872,17.0964285 C17.1443798,17.1659776 17.0990586,17.2513333 17.0699235,17.3398503 C17.0310767,17.4441739 17.0181278,17.5579815 17.0181278,17.6717891 C17.0181278,17.788758 17.0310767,17.9088882 17.0666862,18.0226958 C17.0990586,18.1112128 17.1411426,18.1965685 17.20265,18.2692789 C17.2576829,18.3356667 17.3224276,18.3830865 17.4001211,18.417861 C17.4842891,18.4526356 17.5749316,18.4684422 17.6655741,18.4684422 C17.7724028,18.4684422 17.8792314,18.4526356 17.9731112,18.3988931 C18.054042,18.3514733 18.1220238,18.2882469 18.1738195,18.2123751 C18.2256152,18.1333421 18.264462,18.0448251 18.2871226,17.9499854 C18.3097833,17.8551458 18.3227322,17.7571448 18.3227322,17.6591438 Z M26.153596,17.9025656 L24.8943128,17.9025656 C24.9007873,17.9436628 24.910499,17.98476 24.9234479,18.0226958 C24.952583,18.1112128 24.9979042,18.1965685 25.0594116,18.2692789 C25.1144446,18.3356667 25.1791892,18.3830865 25.2568828,18.417861 C25.3410508,18.4526356 25.4316933,18.4684422 25.5223358,18.4684422 C25.6291644,18.4684422 25.7359931,18.4526356 25.8298728,18.3988931 C25.9108036,18.3514733 25.9787855,18.2882469 26.0305812,18.2123751 C26.0823769,18.1333421 26.1212237,18.0448251 26.1438843,17.9499854 C26.1471215,17.9341788 26.1503588,17.9183722 26.153596,17.9025656 Z M34.4182489,17.9025656 L33.1557285,17.9025656 C33.1654402,17.9436628 33.1751519,17.98476 33.1881008,18.0226958 C33.2172359,18.1112128 33.2593199,18.1965685 33.3208273,18.2692789 C33.3758602,18.3356667 33.4438421,18.3830865 33.5215357,18.417861 C33.6057037,18.4526356 33.693109,18.4684422 33.7837514,18.4684422 C33.8905801,18.4684422 34.000646,18.4526356 34.0912885,18.3988931 C34.1722193,18.3514733 34.2402011,18.2882469 34.2919968,18.2123751 C34.3470298,18.1333421 34.3826393,18.0448251 34.4053,17.9499854 C34.4085372,17.9341788 34.4150117,17.9183722 34.4182489,17.9025656 Z M54.4372906,17.9025656 L53.1780074,17.9025656 C53.1844818,17.9436628 53.1941935,17.98476 53.2071425,18.0226958 C53.2362776,18.1112128 53.2783616,18.1965685 53.339869,18.2692789 C53.3949019,18.3356667 53.4628838,18.3830865 53.5405773,18.417861 C53.6247454,18.4526356 53.7121506,18.4684422 53.8060304,18.4684422 C53.9096218,18.4684422 54.0196877,18.4526356 54.1103301,18.3988931 C54.1912609,18.3514733 54.2592428,18.2882469 54.3110385,18.2123751 C54.3660715,18.1333421 54.4049182,18.0448251 54.4275789,17.9499854 C54.4308161,17.9341788 54.4340533,17.9183722 54.4372906,17.9025656 Z" id="Shape"></path>
                </g>
            </g>
        </g>
    </g>
</svg>