<?xml version="1.0" encoding="UTF-8"?>
<svg width="74px" height="23px" viewBox="0 0 74 23" version="1.1" xmlns="http://www.w3.org/2000/svg" xmlns:xlink="http://www.w3.org/1999/xlink">
    <!-- Generator: Sketch 53.1 (72631) - https://sketchapp.com -->
    <title>Group 9</title>
    <desc>Created with Sketch.</desc>
    <g id="Symbols" stroke="none" stroke-width="1" fill="none" fill-rule="evenodd">
        <g id="footer" transform="translate(-997.000000, -389.000000)" fill="#FFFFFF">
            <g id="Group-9" transform="translate(997.000000, 389.000000)">
                <g id="mastecard">
                    <g id="Group-8" transform="translate(3.000000, 0.000000)">
                        <g id="Group-6">
                            <g id="Group-4">
                                <path d="M12,13.9791639 C10.7405093,15.00593 9.15827885,15.617284 7.44,15.617284 C3.33100146,15.617284 0,12.1212359 0,7.80864198 C0,3.4960481 3.33100146,0 7.44,0 C9.15827885,0 10.7405093,0.611353937 12,1.63812 C13.2594907,0.611353937 14.8417212,0 16.56,0 C20.6689985,0 24,3.4960481 24,7.80864198 C24,12.1212359 20.6689985,15.617284 16.56,15.617284 C14.8417212,15.617284 13.2594907,15.00593 12,13.9791639 Z M12,13.9791639 C13.7523868,12.5505775 14.88,10.3178186 14.88,7.80864198 C14.88,5.29946535 13.7523868,3.06670644 12,1.63812 C10.2476132,3.06670644 9.12,5.29946535 9.12,7.80864198 C9.12,10.3178186 10.2476132,12.5505775 12,13.9791639 Z" id="Combined-Shape"></path>
                                <path d="M12.0351746,13.6184861 C10.4087506,12.227934 9.36,10.0784866 9.36,7.80864198 C9.36,5.55740507 10.3916262,3.43928906 11.9952921,2.06014079 C13.5958151,3.46718634 14.64,5.58897239 14.64,7.80864198 C14.64,10.0689834 13.6272672,12.2194849 12.0351746,13.6184861 Z" id="Combined-Shape"></path>
                            </g>
                        </g>
                    </g>
                    <path d="M4.2087729,22.9067055 L4.2087729,21.1574344 C4.2087729,20.4927114 3.808995,20.0495627 3.16490838,20.0495627 C2.78734037,20.0262391 2.43198223,20.212828 2.23209328,20.5510204 C2.04330927,20.2244898 1.71016102,20.0379009 1.35480289,20.0495627 C1.04386452,20.0379009 0.744031094,20.1895044 0.577456968,20.4693878 L0.577456968,20.1195335 L0,20.1195335 L0,22.9183673 L0.58856191,22.9183673 L0.58856191,21.3673469 C0.58856191,20.877551 0.843975569,20.6209913 1.24375347,20.6209913 C1.64353137,20.6209913 1.82121044,20.877551 1.82121044,21.3556851 L1.82121044,22.9067055 L2.39866741,22.9067055 L2.39866741,21.3673469 C2.39866741,20.877551 2.66518601,20.6209913 3.05385897,20.6209913 C3.44253193,20.6209913 3.64242088,20.877551 3.64242088,21.3556851 L3.64242088,22.9067055 L4.2087729,22.9067055 Z M12.8484175,20.1195335 L11.9044975,20.1195335 L11.9044975,19.2682216 L11.3159356,19.2682216 L11.3159356,20.1195335 L10.7717934,20.1195335 L10.7717934,20.6793003 L11.3159356,20.6793003 L11.3159356,21.9504373 C11.3159356,22.6034985 11.5491394,22.9883382 12.2376458,22.9883382 C12.4930594,22.9883382 12.7484731,22.9183673 12.959467,22.7784257 L12.7928928,22.2536443 C12.6374237,22.3469388 12.4597446,22.4052478 12.2820655,22.4052478 C11.993337,22.4052478 11.8933926,22.2186589 11.8933926,21.9387755 L11.8933926,20.6793003 L12.8373126,20.6793003 L12.8484175,20.1195335 Z M17.7790117,20.0495627 C17.4902832,20.0379009 17.2237646,20.2011662 17.0794003,20.4577259 L17.0794003,20.1195335 L16.5019434,20.1195335 L16.5019434,22.9067055 L17.0794003,22.9067055 L17.0794003,21.3440233 C17.0794003,20.877551 17.2681843,20.6209913 17.6457524,20.6209913 C17.7679067,20.6209913 17.8900611,20.6443149 18.0122154,20.6909621 L18.1898945,20.1195335 C18.0677401,20.0728863 17.9233759,20.0495627 17.7790117,20.0495627 Z M10.3275958,20.3411079 C10.0055525,20.1311953 9.62798445,20.0379009 9.23931149,20.0495627 C8.56191005,20.0495627 8.12881732,20.3877551 8.12881732,20.9475219 C8.12881732,21.4023324 8.45086063,21.6822157 9.05052748,21.7755102 L9.32815103,21.8104956 C9.65019434,21.8571429 9.79455858,21.9504373 9.79455858,22.1020408 C9.79455858,22.3119534 9.58356469,22.4402332 9.18378679,22.4402332 C8.86174348,22.451895 8.55080511,22.3469388 8.29539145,22.148688 L8.02887285,22.6151603 C8.3620211,22.8600583 8.77290394,22.9883382 9.18378679,22.9766764 C9.95002776,22.9766764 10.3942254,22.5918367 10.3942254,22.0670554 C10.3942254,21.5772595 10.0388673,21.3206997 9.46141033,21.2274052 L9.18378679,21.1924198 C8.93947807,21.1574344 8.72848418,21.0991254 8.72848418,20.9241983 C8.72848418,20.7142857 8.91726818,20.5976676 9.23931149,20.5976676 C9.52803998,20.5976676 9.81676846,20.6793003 10.0721821,20.8309038 L10.3275958,20.3411079 Z M25.8189895,20.0495627 C25.530261,20.0379009 25.2637424,20.2011662 25.1193781,20.4577259 L25.1193781,20.1195335 L24.5419212,20.1195335 L24.5419212,22.9067055 L25.1193781,22.9067055 L25.1193781,21.3440233 C25.1193781,20.877551 25.3081621,20.6209913 25.6857301,20.6209913 C25.8078845,20.6209913 25.9300389,20.6443149 26.0521932,20.6909621 L26.2298723,20.1195335 C26.096613,20.0728863 25.9633537,20.0495627 25.8189895,20.0495627 Z M18.3675736,21.5189504 C18.3675736,22.3702624 18.9339256,22.9883382 19.7890061,22.9883382 C20.1332593,23.0116618 20.4775125,22.8833819 20.7440311,22.6501458 L20.4664076,22.1603499 C20.2665186,22.3236152 20.0222099,22.4052478 19.7667962,22.4169096 C19.3003887,22.4169096 18.9672404,22.0553936 18.9672404,21.5189504 C18.9672404,20.9825073 19.3114936,20.6326531 19.7667962,20.6209913 C20.0222099,20.6209913 20.2665186,20.7142857 20.4664076,20.877551 L20.7440311,20.3877551 C20.4775125,20.154519 20.1332593,20.0379009 19.7890061,20.0495627 C18.9339256,20.0495627 18.3675736,20.6676385 18.3675736,21.5189504 L18.3675736,21.5189504 Z M23.7867851,21.5189504 L23.7867851,20.1195335 L23.2093282,20.1195335 L23.2093282,20.4577259 C23.0094392,20.1895044 22.6985008,20.0379009 22.3653526,20.0495627 C21.6213215,20.0495627 21.0327596,20.6676385 21.0327596,21.5189504 C21.0327596,22.3702624 21.6213215,22.9883382 22.3653526,22.9883382 C22.6873959,23 23.0094392,22.8483965 23.2093282,22.5801749 L23.2093282,22.9183673 L23.7867851,22.9183673 L23.7867851,21.5189504 Z M21.6324264,21.5189504 C21.6324264,21.0291545 21.9433648,20.6209913 22.4430872,20.6209913 C22.9205997,20.6209913 23.242643,21.0058309 23.242643,21.5189504 C23.242643,22.03207 22.9205997,22.4169096 22.4430872,22.4169096 C21.9433648,22.4052478 21.6324264,22.0087464 21.6324264,21.5189504 Z M14.6474181,20.0495627 C13.8700722,20.0495627 13.32593,20.6443149 13.32593,21.5189504 C13.32593,22.4052478 13.8922821,22.9883382 14.6918379,22.9883382 C15.0916158,23 15.4802887,22.8600583 15.7801222,22.5918367 L15.5024986,22.1370262 C15.2803998,22.3236152 15.0027762,22.4285714 14.7251527,22.4285714 C14.3475847,22.4285714 14.0144364,22.2536443 13.9255969,21.7405248 L15.9022765,21.7405248 C15.9022765,21.6588921 15.9133815,21.5889213 15.9133815,21.5072886 C15.9133815,20.6443149 15.3914492,20.0495627 14.6474181,20.0495627 L14.6474181,20.0495627 Z M14.6363132,20.5976676 C15.0138812,20.5976676 15.247085,20.8425656 15.3137146,21.2740525 L13.9367018,21.2740525 C13.9922265,20.8658892 14.2254303,20.5976676 14.6363132,20.5976676 L14.6363132,20.5976676 Z M29.150472,21.5189504 L29.150472,19 L28.573015,19 L28.573015,20.4577259 C28.373126,20.1895044 28.0621877,20.0379009 27.7290394,20.0495627 C26.9850083,20.0495627 26.3964464,20.6676385 26.3964464,21.5189504 C26.3964464,22.3702624 26.9850083,22.9883382 27.7290394,22.9883382 C28.0510827,23 28.373126,22.8483965 28.573015,22.5801749 L28.573015,22.9183673 L29.150472,22.9183673 L29.150472,21.5189504 Z M29.8278734,22.6501458 C29.8500833,22.6501458 29.8722932,22.6501458 29.8945031,22.6618076 C29.9167129,22.6734694 29.9278179,22.6851312 29.9500278,22.696793 C29.9611327,22.7084548 29.9833426,22.7317784 29.9833426,22.755102 C30.0055525,22.8017493 30.0055525,22.8483965 29.9833426,22.8950437 C29.9722376,22.9183673 29.9611327,22.9300292 29.9500278,22.9533528 C29.9389228,22.9650146 29.9167129,22.9883382 29.8945031,22.9883382 C29.8722932,23 29.8500833,23 29.8278734,23 C29.7612438,23 29.6946141,22.9533528 29.6724042,22.8950437 C29.6501943,22.8483965 29.6501943,22.8017493 29.6724042,22.755102 C29.6946141,22.7084548 29.7279289,22.6734694 29.7612438,22.6618076 C29.7834536,22.6618076 29.8056635,22.6501458 29.8278734,22.6501458 L29.8278734,22.6501458 Z M29.8278734,22.9650146 C29.8500833,22.9650146 29.8611882,22.9650146 29.8833981,22.9533528 C29.8945031,22.941691 29.9167129,22.941691 29.9278179,22.9300292 C29.9833426,22.8717201 29.9833426,22.7900875 29.9278179,22.7317784 C29.9167129,22.7201166 29.905608,22.7084548 29.8833981,22.7084548 C29.8722932,22.696793 29.8500833,22.696793 29.8278734,22.696793 C29.8056635,22.696793 29.7945586,22.696793 29.7723487,22.7084548 C29.705719,22.7434402 29.6724042,22.8250729 29.705719,22.8950437 C29.716824,22.9067055 29.716824,22.9300292 29.7279289,22.941691 C29.7390339,22.9533528 29.7501388,22.9650146 29.7723487,22.9650146 C29.7945586,22.9650146 29.8056635,22.9650146 29.8278734,22.9650146 L29.8278734,22.9650146 Z M29.8389783,22.7434402 C29.8500833,22.7434402 29.8722932,22.7434402 29.8833981,22.755102 C29.8945031,22.7667638 29.905608,22.7784257 29.8945031,22.7900875 C29.8945031,22.8017493 29.8945031,22.8134111 29.8833981,22.8250729 C29.8722932,22.8367347 29.8611882,22.8367347 29.8500833,22.8367347 L29.905608,22.8950437 L29.8611882,22.8950437 L29.8167685,22.8367347 L29.8056635,22.8367347 L29.8056635,22.8950437 L29.7723487,22.8950437 L29.7723487,22.7317784 L29.8389783,22.7434402 Z M29.7945586,22.7784257 L29.7945586,22.8250729 L29.8389783,22.8250729 C29.8500833,22.8250729 29.8500833,22.8250729 29.8611882,22.8250729 C29.8611882,22.8250729 29.8722932,22.8134111 29.8722932,22.8134111 C29.8722932,22.8017493 29.8722932,22.8017493 29.8611882,22.8017493 C29.8500833,22.8017493 29.8500833,22.8017493 29.8389783,22.8017493 L29.7945586,22.7784257 Z M26.9961133,21.5189504 C26.9961133,21.0291545 27.3070516,20.6209913 27.806774,20.6209913 C28.2842865,20.6209913 28.6063298,21.0058309 28.6063298,21.5189504 C28.6063298,22.03207 28.2842865,22.4169096 27.806774,22.4169096 C27.3070516,22.4052478 26.9961133,22.0087464 26.9961133,21.5189504 Z M7.46252082,21.5189504 L7.46252082,20.1195335 L6.88506385,20.1195335 L6.88506385,20.4577259 C6.6851749,20.1895044 6.37423654,20.0379009 6.05219323,20.0495627 C5.30816213,20.0495627 4.71960022,20.6676385 4.71960022,21.5189504 C4.71960022,22.3702624 5.30816213,22.9883382 6.05219323,22.9883382 C6.37423654,23 6.69627984,22.8483965 6.8961688,22.5801749 L6.8961688,22.9183673 L7.47362576,22.9183673 L7.46252082,21.5189504 Z M5.31926707,21.5189504 C5.31926707,21.0291545 5.63020544,20.6209913 6.12992782,20.6209913 C6.60744031,20.6209913 6.92948362,21.0058309 6.92948362,21.5189504 C6.92948362,22.03207 6.60744031,22.4169096 6.12992782,22.4169096 C5.6191005,22.4052478 5.31926707,22.0087464 5.31926707,21.5189504 L5.31926707,21.5189504 Z" id="Shape" fill-rule="nonzero"></path>
                </g>
                <g id="visa-electron" transform="translate(41.000000, 3.000000)">
                    <g id="logo" transform="translate(0.096454, 0.099403)">
                        <g id="Group-7" transform="translate(12.000000, 12.000000)">
                            <path d="M16.1902241,1.51234532 L16.9635253,1.51234532 L16.9635253,1.75481376 C17.1412301,1.58263286 17.4125389,1.43238734 17.6883615,1.43238734 C18.1637457,1.43238734 18.4217504,1.69278146 18.4217504,2.30178294 C18.4217504,2.75676506 18.4169989,3.24618337 18.4129602,3.73654513 L17.6391838,3.73654513 C17.6434602,3.30821567 17.6482116,2.87564064 17.6482116,2.41688469 C17.6482116,2.23574095 17.5992715,2.09445827 17.3681127,2.09445827 C17.2436242,2.09445827 17.0656818,2.20059718 16.9635253,2.29730152 L16.9594865,3.73654513 L16.1721685,3.73654513 L16.1902241,1.51234532" id="n"></path>
                            <path d="M14.5162824,1.43238734 C15.3430376,1.43238734 15.7697193,1.95317559 15.7697193,2.6239735 C15.7697193,3.2947714 15.3430376,3.81555965 14.5162824,3.81555965 C13.6892896,3.81555965 13.2623703,3.2947714 13.2623703,2.6239735 C13.2623703,1.95317559 13.6892896,1.43238734 14.5162824,1.43238734 L14.5162824,1.43238734 Z M14.5162824,3.23321084 C14.8849962,3.23321084 14.9961805,2.9155017 14.9961805,2.6239735 C14.9961805,2.33291702 14.8849962,2.01473615 14.5162824,2.01473615 C14.1470934,2.01473615 14.0361467,2.33291702 14.0361467,2.6239735 C14.0361467,2.9155017 14.1470934,3.23321084 14.5162824,3.23321084 L14.5162824,3.23321084 Z" id="o"></path>
                            <path d="M11.510267,1.51234532 L12.2838058,1.51234532 L12.2838058,1.8251013 L12.2928336,1.8251013 C12.4082942,1.63570232 12.5591533,1.45007716 12.8618217,1.45007716 C12.9461602,1.45007716 13.0347751,1.45904 13.1150749,1.47672982 L13.0126808,2.23574095 C12.9371325,2.21333385 12.8527939,2.19163434 12.7370957,2.19163434 C12.4793286,2.19163434 12.2792919,2.40768598 12.2792919,2.45202846 L12.2657502,3.73654513 L11.4922115,3.73654513 L11.510267,1.51234532" id="r"></path>
                            <path d="M9.40299158,1.51234532 L9.75246195,1.51234532 L9.74961107,0.757343873 L10.4965416,0.757343873 L10.4787236,1.51234532 L11.1142323,1.51234532 L11.1011658,2.06804147 L10.4654195,2.06804147 C10.4654195,2.37702363 10.4430876,2.70345975 10.4430876,2.8930946 C10.4430876,3.0876826 10.4922653,3.18037725 10.6654563,3.18037725 C10.7723643,3.18037725 10.8609791,3.12730779 10.9500691,3.07423834 L11.1187462,3.59526245 C10.8921012,3.73182785 10.6165162,3.81555965 10.3542352,3.81555965 C9.72751675,3.81555965 9.69639464,3.42308155 9.69639464,2.91125614 C9.69639464,2.63741776 9.71848896,2.36381523 9.71848896,2.06804147 L9.38541115,2.06804147 L9.40299158,1.51234532" id="t"></path>
                            <path d="M9.11695329,3.58629961 C8.90361244,3.71861945 8.55247905,3.81555965 8.29471199,3.81555965 C7.58341743,3.81555965 7.0723972,3.40987315 7.0723972,2.67727881 C7.0723972,1.92675879 7.57890354,1.43238734 8.34365209,1.43238734 C8.61020937,1.43238734 8.93045822,1.51635501 9.10364918,1.62673947 L8.85467233,2.12960204 C8.73897412,2.08101401 8.61448569,2.04138881 8.48999727,2.04138881 C8.10346546,2.04138881 7.84569839,2.27112059 7.84569839,2.63741776 C7.84569839,2.95536276 8.09443767,3.20655818 8.42371431,3.20655818 C8.57029705,3.20655818 8.7168798,3.14075205 8.84136822,3.07848389 L9.11695329,3.58629961" id="c"></path>
                            <path d="M6.64524035,3.48464212 C6.38319696,3.70564692 5.98312347,3.81555965 5.62723862,3.81555965 C4.81402511,3.81555965 4.44483615,3.24217368 4.44483615,2.67279739 C4.44483615,2.00176362 4.95158007,1.43238734 5.64933294,1.43238734 C6.50340907,1.43238734 6.76996635,2.0328977 6.76996635,2.79615439 L5.21837492,2.79615439 C5.21837492,2.96833529 5.32955924,3.25962763 5.75647851,3.25962763 C6.02754969,3.25962763 6.17864632,3.18037725 6.38747328,3.03909456 L6.64524035,3.48464212 L6.64524035,3.48464212 Z M6.07648979,2.34636128 C6.07648979,2.11662951 5.96530547,1.90930484 5.70753841,1.90930484 C5.46283788,1.90930484 5.27634281,2.12559235 5.22740271,2.34636128 L6.07648979,2.34636128 L6.07648979,2.34636128 Z" id="e"></path>
                            <polyline id="l" points="3.21111784 0.426190475 3.98260989 0.426190475 3.98545323 3.73654513 3.21396118 3.73654513 3.21111784 0.426190475"></polyline>
                            <polyline id="e" points="0.552434691 0.682103179 2.67776571 0.682103179 2.67776571 1.31799318 1.35733314 1.31799318 1.34830535 1.90482342 2.66446161 1.90482342 2.66446161 2.51382489 1.34379146 2.51382489 1.3487805 3.10065513 2.65091993 3.10065513 2.65091993 3.73654513 0.553384984 3.73654513 0.552434691 0.682103179"></polyline>
                        </g>
                        <g id="registered" transform="translate(31.563636, 8.991133)">
                            <path d="M0.0818985148,0.659188505 C0.0818985148,0.32683262 0.350620982,0.0574742195 0.681898515,0.0574742195 C1.01376342,0.0574742195 1.28189851,0.32683262 1.28189851,0.659188505 C1.28189851,0.991250009 1.01376342,1.26090279 0.681898515,1.26090279 C0.350620982,1.26090279 0.0818985148,0.991250009 0.0818985148,0.659188505 L0.0818985148,0.659188505 Z M0.681898515,1.11606745 C0.934468265,1.11606745 1.13828618,0.911472822 1.13828618,0.659188505 C1.13828618,0.406021046 0.934468265,0.202015176 0.681898515,0.202015176 C0.430503507,0.202015176 0.226391907,0.406021046 0.226391907,0.659188505 C0.226391907,0.911472822 0.430503507,1.11606745 0.681898515,1.11606745 L0.681898515,1.11606745 Z M0.601134932,0.922953672 L0.478374286,0.922953672 L0.478374286,0.394540197 L0.700988089,0.394540197 C0.747390438,0.394540197 0.794380159,0.395128958 0.835496165,0.421034466 C0.8780806,0.451061304 0.902162832,0.500811653 0.902162832,0.553211429 C0.902162832,0.613559486 0.867801598,0.669491832 0.811413933,0.690098486 L0.907742861,0.922953672 L0.771178985,0.922953672 L0.691296459,0.713648947 L0.601134932,0.713648947 L0.601134932,0.922953672 L0.601134932,0.922953672 Z M0.601134932,0.623274052 L0.668682656,0.623274052 C0.694233317,0.623274052 0.721546092,0.625629098 0.743866209,0.613559486 C0.764130527,0.600312352 0.774703214,0.575584368 0.774703214,0.552033906 C0.774703214,0.532604776 0.762368412,0.509054315 0.745040952,0.498750988 C0.723308206,0.486092615 0.689240659,0.488742042 0.66633317,0.488742042 L0.601134932,0.488742042 L0.601134932,0.623274052 L0.601134932,0.623274052 Z"></path>
                        </g>
                        <path d="M28.4957293,9.73295076 L28.2013772,8.32106088 L25.0077802,8.32106088 L24.4842599,9.73295076 L21.8662483,9.73295076 L25.6120629,0.933988385 C25.6120629,0.933988385 25.8395913,0.225821586 26.7722528,0.225821586 L28.7913112,0.225821586 L30.8021704,9.73295076 L28.4957293,9.73295076 Z M25.7317715,6.3702694 L27.7942858,6.3702694 L27.0514363,2.81166054 L25.7317715,6.3702694 Z" id="a"></path>
                        <path d="M22.0622097,2.51191167 L22.4209257,0.470225986 C22.4209257,0.470225986 21.3144407,0.0557484417 20.1616301,0.0557484417 C18.9149384,0.0557484417 15.9546092,0.592630173 15.9546092,3.20311155 C15.9546092,5.65967875 19.4294395,5.69038079 19.4294395,6.97946251 C19.4294395,8.26935218 16.3129152,8.03908688 15.2839129,7.22548281 L14.9108483,9.35967859 C14.9108483,9.35967859 16.0320919,9.89696429 17.7465492,9.89696429 C19.4601866,9.89696429 22.0470412,9.02195614 22.0470412,6.64214404 C22.0470412,4.17022582 18.5410538,3.93955654 18.5410538,2.86498513 C18.5410538,1.79000975 20.9877017,1.92816893 22.0622097,2.51191167" id="s"></path>
                        <polyline id="i" points="13.3628352 9.73295076 10.8510035 9.73295076 12.4207446 0.225821586 14.9333961 0.225821586 13.3628352 9.73295076"></polyline>
                        <path d="M2.04319423,0.225821586 L4.0226914,0.225821586 C5.11236801,0.225821586 5.21403836,1.08184295 5.21403836,1.08184295 L6.05937815,5.35710206 C6.05937815,5.35710206 5.49117207,3.62284076 3.74596766,2.23074561 C1.92082084,0.775226518 0.0177814077,0.386603324 0.0173714466,0.386603324 L0.063697051,0.225821586 L2.04319423,0.225821586 L4.0226914,0.225821586 C5.11236801,0.225821586 5.21403836,1.08184295 5.21403836,1.08184295 L6.05937815,5.35710206 L6.05937815,5.35669809 L6.34307123,6.7649522 L8.73765402,0.225821586 L11.4413475,0.225821586 L7.44463671,9.73295076 L4.82744504,9.73295076 L2.64563206,1.47329396 C1.22839654,0.634643492 0.0177814077,0.386603324 0.0173714466,0.386603324 L0.063697051,0.225821586 L2.04319423,0.225821586 Z" id="v"></path>
                        <path d="M6.05937815,5.35710206 L5.21403836,1.08184295 C5.21403836,1.08184295 5.11236801,0.225821586 4.0226914,0.225821586 L0.063697051,0.225821586 L0.0173714466,0.386603324 C0.0177814077,0.386603324 1.92082084,0.775226518 3.74596766,2.23074561 C5.49117207,3.62284076 6.05937815,5.35710206 6.05937815,5.35710206" id="shape"></path>
                    </g>
                </g>
            </g>
        </g>
    </g>
</svg>