<?xml version="1.0" encoding="UTF-8"?>
<svg width="51px" height="72px" viewBox="0 0 51 72" version="1.1" xmlns="http://www.w3.org/2000/svg" xmlns:xlink="http://www.w3.org/1999/xlink">
    <!-- Generator: Sketch 53.1 (72631) - https://sketchapp.com -->
    <title>dealerdeposit</title>
    <desc>Created with Sketch.</desc>
    <defs>
        <polyline id="path-1" points="46 58.1513672 46 68 4 68 4 36 4 36 46 36 46 47.9719238"></polyline>
        <mask id="mask-2" maskContentUnits="userSpaceOnUse" maskUnits="objectBoundingBox" x="0" y="0" width="42" height="32" fill="white">
            <use xlink:href="#path-1"></use>
        </mask>
    </defs>
    <g id="Page-1" stroke="none" stroke-width="1" fill="none" fill-rule="evenodd">
        <g id="Million-all-services" transform="translate(-205.000000, -931.000000)">
            <g id="dealerdeposit" transform="translate(205.000000, 931.000000)">
                <g id="Group-4">
                    <g id="Payment-Systems" transform="translate(0.000000, 27.000000)">
                        <path d="M50.6649454,21.4973504 L49.245324,21.4973504 L49.245324,9.47445896 C49.0102154,6.33378462 49.0102154,5.02657804 45.1776818,5.10085276 L42.0357466,5.10085276 L23.215371,5.10085276 L4.51730753,5.10085276 C0.292056435,5.10085276 0,6.42367276 0,9.65755019 L0,40.3917448 C0,44.3387118 0.312043843,45 4.51730753,45 L45.103349,45 C48.3602423,45 49.8906443,45 49.6206566,40.3917448 L49.6206566,30.7566158 L50.6649454,30.7566158 L50.6649454,21.4973504 Z M45.8387162,5.87790749 C48.2869552,5.87790749 48.4134442,6.82450728 48.4991166,9.35065824 L27.9262074,9.35065824 L27.9262074,5.96479936 L45.8387162,5.87790749 Z M48.8942149,40.4844264 C49.010584,44.5622808 47.6419927,44.2751382 45.7116868,44.2544061 L4.51730753,44.2544061 C0.76853785,44.1663153 0.895719829,43.6317583 0.76853785,40.3917448 L0.76853785,9.73410866 C0.693060624,6.80830522 0.693060624,5.89017001 4.51730753,5.97139984 L27.9279785,5.97139984 L27.9279785,9.35080164 L45.338069,9.35080164 L48.5093094,9.35080164 L48.5093094,21.5120604 L41.2066898,21.5120604 C38.5896164,21.5120604 36.911499,23.8069219 36.911499,25.9642373 C36.911499,28.1215526 38.1385926,30.7569686 41.2066898,30.7569686 L48.8927465,30.7569686 C48.8935822,37.2369212 48.8940716,40.4794072 48.8942149,40.4844264 Z M50.0723311,30.1645297 L49.6206566,30.1645297 L41.2066898,30.1645297 C39.1341603,30.1645297 37.448218,28.4447874 37.448218,26.3303879 L37.448218,25.9340097 C37.448218,23.8197536 39.1340197,22.0998679 41.2066898,22.0998679 L49.6206566,22.0998679 L50.0723311,22.0998679 L50.0723311,30.1645297 Z" id="Shape" fill="#000000" fill-rule="nonzero"></path>
                        <path d="M0.628342246,6.49925739 L0.663336857,4.8397119 C0.709217487,2.66392 2.48617225,0.924040617 4.66244784,0.924040617 L43,0.924040617 C44.6568542,0.924040617 46,2.26718637 46,3.92404062 L46,5.73754883" id="Path-4" stroke="#000000" stroke-width="0.8" fill-rule="nonzero"></path>
                        <ellipse id="Oval-8" stroke="#000000" stroke-width="0.5" cx="42.2068966" cy="26.3438735" rx="1.75862069" ry="1.77865613"></ellipse>
                    </g>
                    <g id="Group-2" transform="translate(10.000000, 0.000000)" fill-rule="nonzero" stroke="#000000" stroke-width="0.8">
                        <ellipse id="Oval" transform="translate(21.497729, 5.934745) rotate(27.000000) translate(-21.497729, -5.934745) " cx="21.4977293" cy="5.93474536" rx="3.75" ry="4.75"></ellipse>
                        <ellipse id="Oval-Copy" transform="translate(7.754521, 12.500547) scale(-1, 1) rotate(37.000000) translate(-7.754521, -12.500547) " cx="7.75452144" cy="12.5005471" rx="5" ry="6.25"></ellipse>
                        <ellipse id="Oval-Copy-2" fill="#FFFFFF" transform="translate(18.864218, 24.448934) scale(-1, 1) rotate(-29.000000) translate(-18.864218, -24.448934) " cx="18.8642184" cy="24.4489335" rx="5.25" ry="6.75"></ellipse>
                    </g>
                </g>
                <use id="Path" stroke="#000000" mask="url(#mask-2)" stroke-width="1.2" stroke-dasharray="2" fill-rule="nonzero" xlink:href="#path-1"></use>
            </g>
        </g>
    </g>
</svg>