<?xml version="1.0" encoding="UTF-8"?>
<svg width="56px" height="42px" viewBox="0 0 56 42" version="1.1" xmlns="http://www.w3.org/2000/svg" xmlns:xlink="http://www.w3.org/1999/xlink">
    <!-- Generator: Sketch 53.1 (72631) - https://sketchapp.com -->
    <title>Education</title>
    <desc>Created with Sketch.</desc>
    <g id="Page-1" stroke="none" stroke-width="1" fill="none" fill-rule="evenodd">
        <g id="Million-all-services" transform="translate(-611.000000, -760.000000)" stroke="#000000" stroke-width="0.9">
            <g id="Education" transform="translate(612.000000, 761.000000)">
                <path d="M0,4.64244697 C2.29526976,4.46844947 4.0680242,4.16578381 5.31826332,3.73445001 C9.59556684,2.25877583 12.6583912,0.0624231008 16.7195104,0.0624231008 C20.8082922,0.0624231008 24.2829937,1.58909772 27.1436147,4.64244697 C29.9524326,1.58909772 32.9140552,0.0624231008 36.0284824,0.0624231008 C42.2214195,0.0624231008 43.9282827,2.5505995 49.414943,4.02718005 C50.5454303,4.33141895 52.1695258,4.53650793 54.2872294,4.64244697 L54.2872294,40.1831208 C51.6503526,40.0438892 49.7816962,39.8082519 48.6812604,39.4762089 C43.6538969,37.9592636 39.4231677,36.1725414 35.1747206,36.1725414 C32.5464067,36.1725414 29.8693714,37.2737639 27.1436147,39.4762089 C25.1907966,37.2737639 22.211307,36.1725414 18.2051462,36.1725414 C15.4874608,36.1725414 10.886612,37.3627342 6.1626697,38.7323721 C4.77973714,39.1333332 2.72551391,39.5057706 0,39.8496844 L0,4.64244697 Z" id="Path-9"></path>
                <path d="M27.2497158,4.67100152 L27.2497158,39.2445585" id="Path-10"></path>
            </g>
        </g>
    </g>
</svg>