<?xml version="1.0" encoding="UTF-8"?>
<svg width="59px" height="32px" viewBox="0 0 59 32" version="1.1" xmlns="http://www.w3.org/2000/svg" xmlns:xlink="http://www.w3.org/1999/xlink">
    <!-- Generator: Sketch 53.1 (72631) - https://sketchapp.com -->
    <title>Entertainment</title>
    <desc>Created with Sketch.</desc>
    <g id="Page-1" stroke="none" stroke-width="1" fill="none" fill-rule="evenodd">
        <g id="Million-all-services" transform="translate(-817.000000, -569.000000)" stroke="#000000">
            <g id="Entertainment" transform="translate(846.500000, 585.000000) rotate(-360.000000) translate(-846.500000, -585.000000) translate(817.000000, 569.000000)">
                <path d="M0.45,8.48836282 C0.731377349,8.45547158 1.01548926,8.43888889 1.30147059,8.43888889 C5.63164216,8.43888889 9.12647059,12.2298892 9.12647059,16.8888889 C9.12647059,21.5478886 5.63164216,25.3388889 1.30147059,25.3388889 C1.01548926,25.3388889 0.731377349,25.3223062 0.45,25.289415 L0.45,30.2576 C0.45,30.9713728 1.02862719,31.55 1.7424,31.55 L57.2576,31.55 C57.9713728,31.55 58.55,30.9713728 58.55,30.2576 L58.55,25.3388715 C54.2273043,25.3294438 50.7411765,21.5420855 50.7411765,16.8888889 C50.7411765,12.2356922 54.2273043,8.44833401 58.55,8.43890653 L58.55,1.7424 C58.55,1.02862719 57.9713728,0.45 57.2576,0.45 L1.7424,0.45 C1.02862719,0.45 0.45,1.02862719 0.45,1.7424 L0.45,8.48836282 Z" id="Combined-Shape" stroke-width="0.9"></path>
                <path d="M39.0441176,0 L39.0441176,4.06580946" id="Path-15" stroke-width="0.72"></path>
                <path d="M39.0441176,6.22222222 L39.0441176,10.2880317" id="Path-15-Copy" stroke-width="0.72"></path>
                <path d="M39.0441176,12.4444444 L39.0441176,16.5102539" id="Path-15-Copy-2" stroke-width="0.72"></path>
                <path d="M39.0441176,18.6666667 L39.0441176,22.7324761" id="Path-15-Copy-3" stroke-width="0.72"></path>
                <path d="M39.0441176,24.8888889 L39.0441176,28.9546984" id="Path-15-Copy-4" stroke-width="0.72"></path>
                <path d="M39.0441176,30.7951118 L39.0441176,31.9929742" id="Path-15-Copy-5" stroke-width="0.72"></path>
            </g>
        </g>
    </g>
</svg>