<?xml version="1.0" encoding="UTF-8"?>
<svg width="1258px" height="450px" viewBox="0 0 1258 450" version="1.1" xmlns="http://www.w3.org/2000/svg" xmlns:xlink="http://www.w3.org/1999/xlink">
    <!-- Generator: Sketch 53.1 (72631) - https://sketchapp.com -->
    <title>footer bg</title>
    <desc>Created with Sketch.</desc>
    <defs>
        <path d="M1258,0 L140.32095,88.1078211 C126.210915,89.2201301 114.159688,98.721247 109.785147,112.182068 L0,450 L1258,450 L1258,0 Z" id="path-1"></path>
    </defs>
    <g id="Symbols" stroke="none" stroke-width="1" fill="none" fill-rule="evenodd">
        <g id="footer" transform="translate(10.000000, -5.000000)">
            <g id="footer-bg" transform="translate(619.000000, 230.000000) scale(-1, 1) translate(-619.000000, -230.000000) translate(-10.000000, 5.000000)">
                <mask id="mask-2" fill="white">
                    <use xlink:href="#path-1"></use>
                </mask>
                <use id="Mask" fill="#D1010F" xlink:href="#path-1"></use>
                <path d="M1251.40956,1.03100815 C1223.66916,9.13558354 1197.58438,17.1707026 1180.06445,18.95 C1123.76679,24.6675058 1056.45152,-10.0190062 1027.62701,18.6 C977.74736,68.1240357 1051.41463,82.0751862 1051.41463,155.773692 C1051.41463,191.926353 1037.94172,197.988856 1029.65824,217.077796 C1017.46595,245.174469 1014.23128,279.757811 1063.05275,302.217424 C1128.39976,332.279376 1158.5787,212.11285 1232.43954,178.634718 C1240.59138,174.939816 1250.74592,172.532559 1258,171.327665" id="Path" stroke="#C10713" mask="url(#mask-2)"></path>
                <path d="M89.4960126,190.091452 C91.7464073,195.877041 99.7499888,225.547843 102.163663,234.76441 C105.313218,246.790925 107.858235,260.083441 107.858235,270.322851 C107.858235,288.413766 105.063184,300.254537 101.080172,309.562701 C99.5288885,313.187997 97.7974026,316.429121 95.9806603,319.505702 C91.2245273,327.560026 85.8840779,334.486639 81.6628836,344.226264 C66.9829881,378.097406 63.0883513,419.788368 121.870875,446.863914 C200.550658,483.104243 236.887011,338.240915 325.817689,297.882309 C404.967445,261.96249 444.186854,339.839142 520.631677,270.322851 C537.265958,255.196208 541.339878,221.998532 538.216077,186.946414 L89.4960126,190.091452 Z" id="Path" stroke="#C10713" mask="url(#mask-2)" transform="translate(305.802938, 319.787913) rotate(-180.000000) translate(-305.802938, -319.787913) "></path>
            </g>
        </g>
    </g>
</svg>