<?xml version="1.0" encoding="UTF-8"?>
<svg width="87px" height="25px" viewBox="0 0 87 25" version="1.1" xmlns="http://www.w3.org/2000/svg" xmlns:xlink="http://www.w3.org/1999/xlink">
    <!-- Generator: Sketch 53.1 (72631) - https://sketchapp.com -->
    <title>google play</title>
    <desc>Created with Sketch.</desc>
    <g id="Symbols" stroke="none" stroke-width="1" fill="none" fill-rule="evenodd">
        <g id="footer" transform="translate(-181.000000, -384.000000)">
            <g id="google-play" transform="translate(182.000000, 385.000000)">
                <g id="bb8l9q.tif" transform="translate(27.000000, 4.000000)">
                    <path d="M11.1125402,0.1096 L11.1125402,3.72 L11.6864952,3.72 L11.6864952,0.1096 L11.1125402,0.1096 Z M12.1197749,0.1096 L12.1197749,0.6304 L13.1117363,0.6304 L13.1117363,3.724 L13.6414791,3.724 L13.6414791,0.6216 L14.6358521,0.6216 L14.6358521,0.1064 L12.1197749,0.1096 Z M6.93086817,0.1096 L6.93086817,0.628 L7.92604502,0.628 L7.92604502,3.7264 L8.51768489,3.7264 L8.51768489,0.6216 L9.5,0.6216 L9.5,0.1096 L6.93086817,0.1096 Z M6.55064309,0.6216 L6.55064309,0.1016 L4.39790997,0.1016 L4.39790997,3.72 L6.54662379,3.72 L6.54662379,3.1328 L4.98231511,3.1328 L4.98231511,2.1416 L6.43569132,2.1416 L6.43569132,1.6152 L4.97990354,1.6152 L4.97990354,0.6216 L6.55064309,0.6216 Z M3.83360129,1.7416 L2.03617363,1.7416 L2.03617363,2.32 L3.30064309,2.32 C3.3159164,2.7384 2.92202572,3.1592 2.42202572,3.28 C1.85289389,3.4144 1.12138264,3.084 0.90755627,2.56 C0.656752412,1.944 0.746784566,1.2912 1.37620579,0.8304 C1.85209003,0.4816 2.52009646,0.5712 3.02491961,1.0448 L3.40032154,0.6736 C3.33133524,0.587690741 3.25552895,0.507432848 3.17363344,0.4336 C2.66157556,0.0424 2.09405145,-0.0776 1.47347267,0.124 C0.576366559,0.416 0.0554662379,1.324 0.229903537,2.284 C0.386655949,3.148 1.21061093,3.804 2.11093248,3.7832 C3.12620579,3.7624 4.00241158,3.0656 3.83360129,1.7416 Z M18.0233119,0.0312 C16.9123794,0.012 16.0819936,0.7896 16.0578778,1.8848 C16.0345659,2.9248 16.8456592,3.7552 17.9131833,3.7848 C18.9399882,3.80642406 19.7937601,3.00308315 19.829582,1.9816 C19.8754019,0.9064 18.9975884,0.052 18.0233119,0.0344 L18.0233119,0.0312 Z M17.9477492,3.2568 C17.3987138,3.2496 16.6302251,2.7768 16.6414791,1.9232 C16.6503215,1.2632 17.1800643,0.544 17.9276527,0.5568 C18.6566586,0.581339752 19.235392,1.17568052 19.2371383,1.9016 C19.2355305,2.652 18.6511254,3.2688 17.9477492,3.2616 L17.9477492,3.2568 Z M22.6004823,0.1048 L22.6004823,2.6312 C22.5488732,2.59822455 22.5067667,2.55246056 22.4782958,2.4984 C22.0045552,1.7368 21.5308146,0.9752 21.057074,0.2136 C21.0265273,0.164 20.9686495,0.1016 20.9188103,0.0984 C20.738746,0.084 20.5578778,0.092 20.3697749,0.092 L20.3697749,3.7168 L20.8882637,3.7168 L20.8882637,1.06 C20.9401453,1.09261323 20.9832025,1.13738652 21.0136656,1.1904 C21.5238478,1.9936 22.0353698,2.79626667 22.5482315,3.5984 C22.5856075,3.65999321 22.6455541,3.70473742 22.7154341,3.7232 C22.8700718,3.7340054 23.025209,3.7358752 23.1800643,3.7288 L23.1800643,0.108 L22.6004823,0.1048 Z M38.8834405,6.3128 L38.8834405,13.6208 L39.9815113,13.6208 L39.9815113,6.316 L38.8834405,6.3128 Z M24.5562701,6.3128 L24.5562701,13.628 L25.6503215,13.628 L25.6503215,6.3152 L24.5562701,6.3128 Z M48.7757235,8.9528 L47.5337621,12.1216 L47.4823151,12.1152 C47.0487674,11.0602667 46.6162915,10.0058667 46.1848875,8.952 L45.0128617,8.952 C45.0401929,9.0184 45.0610932,9.0736 45.0844051,9.1272 C45.6856913,10.5064 46.2880493,11.8856 46.8914791,13.2648 C46.9361257,13.3514352 46.9361257,13.4541648 46.8914791,13.5408 C46.7130225,13.9184 46.5426045,14.3 46.3705788,14.68 L45.8311897,15.8688 C46.1744373,15.8688 46.4823151,15.8624 46.7893891,15.8728 C46.8936288,15.8859127 46.9915413,15.8202672 47.0184887,15.7192 C47.9691854,13.5208 48.9222937,11.3237333 49.8778135,9.128 C49.9011254,9.0744 49.9220257,9.02 49.9493569,8.9528 L48.7757235,8.9528 Z M27.511254,12.1072 L30.8818328,10.6944 C30.7122186,10.3744 30.5779743,10.06 30.3898714,9.7808 C29.505627,8.4704 27.8175241,8.6472 26.9967846,9.4744 C26.3617363,10.1144 26.1776527,10.8984 26.2893891,11.7664 C26.4211831,12.7300355 27.1164493,13.5232376 28.0578778,13.784 C29.0176849,14.048 30.0675241,13.712 30.6631833,12.9496 C30.7090032,12.8904 30.7435691,12.8256 30.7909968,12.7568 L29.9742765,12.1776 C29.2869775,13.2192 27.8770096,13.0216 27.511254,12.1072 Z M28.3617363,9.8048 C28.8231511,9.6848 29.3625402,9.9016 29.5498392,10.2992 L27.3303859,11.228 C27.2861736,10.6064 27.7596463,9.9624 28.3617363,9.8048 L28.3617363,9.8048 Z M15.9935691,8.8296 C14.5466238,8.8352 13.4525723,9.9288 13.4606109,11.364 C13.4598816,12.0351539 13.7299983,12.6784873 14.2103287,13.1495928 C14.690659,13.6206984 15.3409646,13.8801106 16.0152733,13.8696 C17.4565916,13.864 18.5337621,12.7816 18.5313505,11.3424 C18.5289389,9.88 17.4622186,8.8248 15.9935691,8.8296 Z M17.3987138,11.2976 C17.4138518,11.6862306 17.2759899,12.0653969 17.0144695,12.3544 C16.7502909,12.6548709 16.3660506,12.8235994 15.9649571,12.8152641 C15.5638637,12.8069288 15.1870359,12.6223842 14.9356913,12.3112 C14.4477232,11.6979082 14.4632072,10.8269297 14.9726688,10.2312 C15.341972,9.81632873 15.92563,9.6629902 16.4525723,9.8424 C16.9933157,10.0351055 17.3658661,10.5309251 17.3987138,11.1016 C17.4059486,11.1656 17.3987138,11.232 17.3987138,11.2976 Z M10.5217042,8.8296 C9.09163987,8.8208 7.98874598,9.9 7.97909968,11.3176 C7.96945338,12.7352 9.06511254,13.8568 10.4823151,13.8696 C11.9348875,13.8824 13.0369775,12.8104 13.0490354,11.3728 C13.0643087,9.9056 12.0048232,8.8392 10.5249196,8.8296 L10.5217042,8.8296 Z M11.6744373,12.164 C11.3868451,12.6403773 10.8349661,12.8922798 10.2845659,12.7984 C9.71594722,12.6887523 9.26781566,12.2522138 9.14549839,11.6888 C9.11655949,11.5608 9.1085209,11.4288 9.09807074,11.3536 C9.10691318,10.764 9.29983923,10.32 9.74115756,10.0096 C10.0493865,9.79196961 10.4347407,9.71186598 10.8047329,9.78851446 C11.1747251,9.86516294 11.4959524,10.0916437 11.6913183,10.4136 C12.0297428,10.9896 12.0265273,11.588 11.6776527,12.164 L11.6744373,12.164 Z M45.0546624,10.9248 C45.0619879,10.2858706 44.7691283,9.68017923 44.2628617,9.2872 C43.6953376,8.8344 43.0321543,8.712 42.3263666,8.7992 C41.818328,8.8616 41.3617363,9.0472 41.0241158,9.4464 C40.9200888,9.58420513 40.8250389,9.72850058 40.7395498,9.8784 L41.7467846,10.2904 C42.1655949,9.7688 42.7508039,9.624 43.3303859,9.8904 C43.7081994,10.064 43.9662379,10.4392 43.9107717,10.7344 C43.9054428,10.7352005 43.9000234,10.7352005 43.8946945,10.7344 L43.8344051,10.7072 C43.1013808,10.360818 42.244586,10.3924763 41.5393891,10.792 C40.659164,11.2616 40.4308682,12.2856 41.011254,13.052 C41.6036977,13.8352 43.0635048,14.0864 43.8247588,13.1864 C43.8673633,13.1368 43.9188103,13.0952 43.9951768,13.0216 L43.9951768,13.6248 L45.0586817,13.6248 L45.0586817,13.4648 C45.0610932,12.6216 45.0699357,11.7712 45.0578778,10.9248 L45.0546624,10.9248 Z M43.857717,11.7416 C43.6969453,12.4568 42.9565916,13.0216 42.1615756,12.7368 C41.9155949,12.648 41.7266881,12.4968 41.7081994,12.2088 C41.6729958,11.9351831 41.8328663,11.6737756 42.0932476,11.5792 C42.3448553,11.48 42.6173633,11.4352 42.8971061,11.3632 C43.1969453,11.4432 43.4879421,11.5168 43.7749196,11.6032 C43.8248356,11.631854 43.8561945,11.6842721 43.857717,11.7416 L43.857717,11.7416 Z M38.1278135,7.7784 C37.8062701,6.924 37.1294212,6.4184 36.238746,6.3528 C35.2459807,6.2768 34.2419614,6.3352 33.227492,6.3352 L33.227492,13.6216 L34.340836,13.6216 L34.340836,10.8848 L34.5401929,10.8848 C34.9766881,10.8848 35.4131833,10.8904 35.8496785,10.8848 C36.590836,10.8728 37.2435691,10.6328 37.7339228,10.0656 C38.318328,9.3888 38.4397106,8.604 38.1278135,7.78 L38.1278135,7.7784 Z M36.0040193,9.8216 C35.4710611,9.8528 34.9332797,9.8296 34.3963023,9.8296 C34.3776054,9.82588375 34.359492,9.81969556 34.3424437,9.8112 L34.3424437,7.3016 L34.5418006,7.3016 C34.994373,7.3016 35.4469453,7.296 35.8995177,7.3016 C36.5779743,7.3128 37.1109325,7.7608 37.2049839,8.3856 C37.307074,9.0592 36.7234727,9.776 36.0040193,9.8216 Z M23.8376206,9.1096 L23.8376206,8.9576 L22.778135,8.9576 L22.778135,9.2824 C22.4903537,9.1344 22.2234727,8.9432 21.9252412,8.8552 C21.1607717,8.6296 20.4782958,8.8616 19.9003215,9.3696 C19.1575563,10.0216 18.8625402,10.8528 19.0651125,11.8208 C19.2548232,12.7248 19.8094855,13.3408 20.6945338,13.636 C21.4364952,13.876 22.1229904,13.7872 22.692926,13.2016 C22.7177544,13.186396 22.744905,13.1753177 22.7733119,13.1688 C22.7733119,13.3592 22.7869775,13.5352 22.7733119,13.7088 C22.7250804,14.2336 22.5265273,14.676 22,14.88 C21.4734727,15.084 20.9726688,15.0272 20.5466238,14.64 C20.392283,14.5 20.2845659,14.308 20.1446945,14.1272 L19.2475884,14.5184 C19.2700965,14.5664 19.2797428,14.5912 19.2926045,14.616 C19.7448517,15.553157 20.7478561,16.0982976 21.7845659,15.9704 C22.7934084,15.8624 23.4782958,15.3008 23.7194534,14.3448 C23.7941165,14.0407696 23.8321653,13.7289781 23.8327974,13.416 C23.8440514,11.9816 23.8376206,10.5416 23.8376206,9.1096 Z M22.5128617,12.3016 C22.2756499,12.6311038 21.8911719,12.8239147 21.4839228,12.8176 C21.0872424,12.8207067 20.7095655,12.6487408 20.4525723,12.348 C19.9626386,11.775025 19.9320407,10.9422551 20.3786174,10.3352 C20.7371383,9.8712 21.2178457,9.672 21.7950161,9.8144 C22.3721865,9.9568 22.6921222,10.3872 22.8030547,10.9584 C22.9089598,11.4268204 22.8028651,11.9178949 22.5128617,12.3016 L22.5128617,12.3016 Z M7.664791,9.7728 C7.64951768,9.6312 7.59726688,9.5936 7.45819936,9.5944 C6.35289389,9.6 5.24758842,9.5944 4.14228296,9.5944 C4.0892283,9.5944 4.03617363,9.6008 3.98151125,9.6048 L3.98151125,10.6448 L6.48794212,10.6448 C6.50562701,11.0864 6.23311897,11.7 5.87861736,12.032 C5.15514469,12.7072 4.2926045,12.88 3.35610932,12.684 C2.11173633,12.4248 1.28376206,11.4264 1.21623794,10.1048 C1.15836013,8.9584 1.6181672,8.0456 2.63344051,7.4808 C3.64871383,6.916 4.63745981,7.0144 5.59324759,7.6408 C5.70659164,7.7144 5.81189711,7.8008 5.89228296,7.86 L6.65675241,7.1024 C6.61254019,7.0632 6.5562701,7.012 6.49598071,6.9632 C5.20096463,5.9128 3.50160772,5.7784 2.05466238,6.6128 C0.334405145,7.6048 -0.375401929,9.6616 0.397909968,11.428 C1.02733119,12.8624 2.56028939,13.9008 4.35209003,13.8096 C6.30546624,13.712 7.91318328,12.0272 7.664791,9.7704 L7.664791,9.7728 Z" id="Shape" fill="#000000" fill-rule="nonzero"></path>
                    <path d="M3.97427653,10.648 L3.97427653,9.608 C4.0329582,9.604 4.08601286,9.5976 4.13504823,9.5976 C5.2403537,9.5976 6.34565916,9.5976 7.45096463,9.5976 C7.59003215,9.5976 7.64228296,9.6344 7.65755627,9.776 C7.90836013,12.0328 6.29581994,13.7176 4.34163987,13.8168 C2.54983923,13.908 1.01688103,12.8696 0.387459807,11.4352 C-0.386655949,9.6688 0.323954984,7.6128 2.04421222,6.62 C3.49115756,5.7856 5.19051447,5.9192 6.48553055,6.9712 C6.54501608,7.0192 6.60128617,7.0712 6.64630225,7.1096 L5.8818328,7.8672 C5.80144695,7.808 5.69533762,7.7216 5.58199357,7.6472 C4.62700965,7.0232 3.62459807,6.932 2.62299035,7.4872 C1.62138264,8.0424 1.14790997,8.9648 1.20578778,10.1112 C1.2733119,11.4328 2.10128617,12.4312 3.34485531,12.6904 C4.2829582,12.8864 5.14710611,12.7136 5.8681672,12.0384 C6.22266881,11.7064 6.49517685,11.0928 6.47749196,10.6512 L3.97427653,10.6512 L3.97427653,10.648 Z" id="Path" fill="#FFFFFF"></path>
                    <path d="M23.8376206,9.1096 L23.8376206,8.9576 L22.778135,8.9576 L22.778135,9.2824 C22.4903537,9.1344 22.2234727,8.9432 21.9252412,8.8552 C21.1607717,8.6296 20.4782958,8.8616 19.9003215,9.3696 C19.1575563,10.0216 18.8625402,10.8528 19.0651125,11.8208 C19.2548232,12.7248 19.8094855,13.3408 20.6945338,13.636 C21.4364952,13.876 22.1229904,13.7872 22.692926,13.2016 C22.7177544,13.186396 22.744905,13.1753177 22.7733119,13.1688 C22.7733119,13.3592 22.7869775,13.5352 22.7733119,13.7088 C22.7250804,14.2336 22.5265273,14.676 22,14.88 C21.4734727,15.084 20.9726688,15.0272 20.5466238,14.64 C20.392283,14.5 20.2845659,14.308 20.1446945,14.1272 L19.2475884,14.5184 C19.2700965,14.5664 19.2797428,14.5912 19.2926045,14.616 C19.7448517,15.553157 20.7478561,16.0982976 21.7845659,15.9704 C22.7934084,15.8624 23.4782958,15.3008 23.7194534,14.3448 C23.7941165,14.0407696 23.8321653,13.7289781 23.8327974,13.416 C23.8440514,11.9816 23.8376206,10.5416 23.8376206,9.1096 Z M22.5128617,12.3016 C22.2756499,12.6311038 21.8911719,12.8239147 21.4839228,12.8176 C21.0872424,12.8207067 20.7095655,12.6487408 20.4525723,12.348 C19.9626386,11.775025 19.9320407,10.9422551 20.3786174,10.3352 C20.7371383,9.8712 21.2178457,9.672 21.7950161,9.8144 C22.3721865,9.9568 22.6921222,10.3872 22.8030547,10.9584 C22.9089598,11.4268204 22.8028651,11.9178949 22.5128617,12.3016 L22.5128617,12.3016 Z" id="Shape" fill="#FFFFFF" fill-rule="nonzero"></path>
                    <path d="M38.1278135,7.78 C37.8062701,6.9256 37.1294212,6.42 36.238746,6.3544 C35.2459807,6.2784 34.2419614,6.3368 33.227492,6.3368 L33.227492,13.6232 L34.340836,13.6232 L34.340836,10.8848 L34.5401929,10.8848 C34.9766881,10.8848 35.4131833,10.8904 35.8496785,10.8848 C36.590836,10.8728 37.2435691,10.6328 37.7339228,10.0656 C38.318328,9.3888 38.4397106,8.604 38.1278135,7.78 Z M36.0040193,9.8216 C35.4710611,9.8528 34.9332797,9.8296 34.3963023,9.8296 C34.3776054,9.82588375 34.359492,9.81969556 34.3424437,9.8112 L34.3424437,7.3016 L34.5418006,7.3016 C34.994373,7.3016 35.4469453,7.296 35.8995177,7.3016 C36.5779743,7.3128 37.1109325,7.7608 37.2049839,8.3856 C37.307074,9.0592 36.7234727,9.776 36.0040193,9.8216 Z" id="Shape" fill="#FFFFFF" fill-rule="nonzero"></path>
                    <path d="M45.0578778,10.9248 C45.0652033,10.2858706 44.7723437,9.68017923 44.2660772,9.2872 C43.6985531,8.8344 43.0353698,8.712 42.329582,8.7992 C41.8215434,8.8616 41.3649518,9.0472 41.0273312,9.4464 C40.9233042,9.58420513 40.8282543,9.72850058 40.7427653,9.8784 L41.75,10.2904 C42.1688103,9.7688 42.7540193,9.624 43.3336013,9.8904 C43.7114148,10.064 43.9694534,10.4392 43.9139871,10.7344 C43.9086583,10.7352005 43.9032388,10.7352005 43.89791,10.7344 L43.8376206,10.7072 C43.1045962,10.360818 42.2478014,10.3924763 41.5426045,10.792 C40.6623794,11.2616 40.4340836,12.2856 41.0144695,13.052 C41.6069132,13.8352 43.0667203,14.0864 43.8279743,13.1864 C43.8705788,13.1368 43.9220257,13.0952 43.9983923,13.0216 L43.9983923,13.6248 L45.0618971,13.6248 L45.0618971,13.4648 C45.0610932,12.6216 45.0699357,11.7712 45.0578778,10.9248 Z M43.857717,11.7416 C43.6969453,12.4568 42.9565916,13.0216 42.1615756,12.7368 C41.9155949,12.648 41.7266881,12.4968 41.7081994,12.2088 C41.6729958,11.9351831 41.8328663,11.6737756 42.0932476,11.5792 C42.1796821,11.5456442 42.2679844,11.5170636 42.357717,11.4936 C42.697739,11.4015865 43.0562803,11.4015865 43.3963023,11.4936 C43.5233119,11.528 43.6487138,11.5632 43.7733119,11.6016 C43.8243299,11.6301433 43.8564188,11.6833681 43.857717,11.7416 L43.857717,11.7416 Z" id="Shape" fill="#FFFFFF" fill-rule="nonzero"></path>
                    <path d="M10.5249196,8.8296 C9.09485531,8.8208 7.99196141,9.9 7.98231511,11.3176 C7.97266881,12.7352 9.06832797,13.8568 10.4855305,13.8696 C11.9381029,13.8824 13.0401929,12.8104 13.0522508,11.3728 C13.0643087,9.9056 12.0048232,8.8392 10.5249196,8.8296 Z M11.6776527,12.164 C11.3900605,12.6403773 10.8381815,12.8922798 10.2877814,12.7984 C9.71916265,12.6887523 9.2710311,12.2522138 9.14871383,11.6888 C9.11977492,11.5608 9.11173633,11.4288 9.10128617,11.3536 C9.11012862,10.764 9.30305466,10.32 9.74437299,10.0096 C10.0523887,9.79305399 10.4369552,9.71358505 10.8061354,9.7901916 C11.1753155,9.86679815 11.4959256,10.0925945 11.6913183,10.4136 C12.0297428,10.9896 12.0265273,11.588 11.6776527,12.164 Z" id="Shape" fill="#FFFFFF" fill-rule="nonzero"></path>
                    <path d="M15.9935691,8.8296 C14.5466238,8.8352 13.4525723,9.9288 13.4606109,11.364 C13.4598816,12.0351539 13.7299983,12.6784873 14.2103287,13.1495928 C14.690659,13.6206984 15.3409646,13.8801106 16.0152733,13.8696 C17.4565916,13.864 18.5337621,12.7816 18.5313505,11.3424 C18.5289389,9.88 17.4622186,8.8248 15.9935691,8.8296 Z M17.3987138,11.2976 C17.4138518,11.6862306 17.2759899,12.0653969 17.0144695,12.3544 C16.7502909,12.6548709 16.3660506,12.8235994 15.9649571,12.8152641 C15.5638637,12.8069288 15.1870359,12.6223842 14.9356913,12.3112 C14.4477232,11.6979082 14.4632072,10.8269297 14.9726688,10.2312 C15.341972,9.81632873 15.92563,9.6629902 16.4525723,9.8424 C16.9933157,10.0351055 17.3658661,10.5309251 17.3987138,11.1016 C17.4059486,11.1656 17.3987138,11.232 17.3987138,11.2976 Z" id="Shape" fill="#FFFFFF" fill-rule="nonzero"></path>
                    <path d="M27.511254,12.1072 L30.8818328,10.6944 C30.7122186,10.3744 30.5779743,10.06 30.3898714,9.7808 C29.505627,8.4704 27.8175241,8.6472 26.9967846,9.4744 C26.3617363,10.1144 26.1776527,10.8984 26.2893891,11.7664 C26.4211831,12.7300355 27.1164493,13.5232376 28.0578778,13.784 C29.0176849,14.048 30.0675241,13.712 30.6631833,12.9496 C30.7090032,12.8904 30.7435691,12.8256 30.7909968,12.7568 L29.9742765,12.1776 C29.2869775,13.2192 27.8770096,13.0216 27.511254,12.1072 Z M28.3617363,9.8048 C28.8231511,9.6848 29.3625402,9.9016 29.5498392,10.2992 L27.3303859,11.228 C27.2861736,10.6064 27.7596463,9.9624 28.3617363,9.8048 L28.3617363,9.8048 Z" id="Shape" fill="#FFFFFF" fill-rule="nonzero"></path>
                    <path d="M45.8287781,15.8704 L46.3681672,14.6816 C46.5401929,14.3016 46.7106109,13.92 46.8890675,13.5424 C46.9337142,13.4557648 46.9337142,13.3530352 46.8890675,13.2664 C46.2834941,11.8882667 45.6811361,10.5090667 45.0819936,9.1288 C45.0586817,9.0752 45.0377814,9.0208 45.0104502,8.9536 L46.1824759,8.9536 C46.6144159,10.0064 47.0468917,11.0608 47.4799035,12.1168 L47.5313505,12.124 C47.9450697,11.0664 48.3590568,10.0098667 48.7733119,8.9544 L49.9445338,8.9544 C49.9172026,9.0216 49.8963023,9.076 49.8729904,9.1296 C48.9196141,11.3264 47.9667738,13.5234667 47.0144695,15.7208 C46.9874626,15.8221037 46.8889381,15.8875857 46.7845659,15.8736 C46.4799035,15.864 46.1720257,15.8704 45.8287781,15.8704 Z" id="Path" fill="#FFFFFF"></path>
                    <polygon id="Path" fill="#FFFFFF" points="25.6503215 13.6304 24.5530547 13.6304 24.5530547 6.3152 25.6471061 6.3152"></polygon>
                    <polygon id="Path" fill="#FFFFFF" points="39.9815113 6.316 39.9815113 13.624 38.8834405 13.624 38.8834405 6.316"></polygon>
                    <path d="M23.1800643,3.7288 C23.025209,3.7358752 22.8700718,3.7340054 22.7154341,3.7232 C22.6456655,3.70450935 22.5857963,3.65982296 22.5482315,3.5984 C22.0337621,2.7984 21.5222401,1.99573333 21.0136656,1.1904 C20.9830478,1.13776231 20.9403526,1.09307906 20.8890675,1.06 L20.8890675,3.7208 L20.3729904,3.7208 L20.3729904,0.096 C20.5610932,0.096 20.7419614,0.0872 20.9220257,0.1008 C20.971865,0.1048 21.0297428,0.1672 21.0602894,0.2168 C21.5361736,0.9768 22.0099143,1.7384 22.4815113,2.5016 C22.5099822,2.55566056 22.5520886,2.60142455 22.6036977,2.6344 L22.6036977,0.108 L23.1832797,0.108 L23.1800643,3.7288 Z" id="Path" fill="#FFFFFF"></path>
                    <path d="M18.0233119,0.0344 C16.9123794,0.0152 16.0819936,0.7928 16.0578778,1.888 C16.0345659,2.928 16.8456592,3.7584 17.9131833,3.788 C18.9411988,3.80958992 19.7954774,3.0043458 19.829582,1.9816 C19.8754019,0.9064 18.9975884,0.052 18.0233119,0.0344 Z M17.9477492,3.26 C17.3987138,3.2528 16.6302251,2.78 16.6414791,1.9264 C16.6503215,1.2664 17.1800643,0.5472 17.9276527,0.56 C18.6554177,0.584491816 19.2336672,1.17692256 19.2371383,1.9016 C19.2355305,2.652 18.6511254,3.2688 17.9477492,3.2616 L17.9477492,3.26 Z" id="Shape" fill="#FFFFFF" fill-rule="nonzero"></path>
                    <path d="M3.40032154,0.6744 L3.02491961,1.0456 C2.52009646,0.572 1.85209003,0.4856 1.37620579,0.8312 C0.746784566,1.292 0.652733119,1.9448 0.90755627,2.5608 C1.12138264,3.0848 1.85289389,3.4152 2.42202572,3.2808 C2.92202572,3.1624 3.31511254,2.7416 3.30064309,2.3208 L2.03617363,2.3208 L2.03617363,1.7416 L3.83279743,1.7416 C4.00160772,3.0624 3.12620579,3.7592 2.11093248,3.7848 C1.21061093,3.8064 0.386655949,3.1496 0.229903537,2.2856 C0.0554662379,1.3256 0.576366559,0.4168 1.47347267,0.1256 C2.09405145,-0.076 2.66157556,0.0456 3.17363344,0.4352 C3.25549646,0.508777778 3.33130188,0.588767234 3.40032154,0.6744 L3.40032154,0.6744 Z" id="Path" fill="#FFFFFF"></path>
                    <polygon id="Path" fill="#FFFFFF" points="4.39790997 0.1016 6.55064309 0.1016 6.55064309 0.6216 4.98151125 0.6216 4.98151125 1.6136 6.43729904 1.6136 6.43729904 2.1416 4.98392283 2.1416 4.98392283 3.1336 6.54662379 3.1336 6.54662379 3.7208 4.39630225 3.7208"></polygon>
                    <polygon id="Path" fill="#FFFFFF" points="8.51848875 3.7232 7.92604502 3.7232 7.92604502 0.6264 6.93086817 0.6264 6.93086817 0.1072 9.50321543 0.1072 9.50321543 0.6216 8.52170418 0.6216"></polygon>
                    <polygon id="Path" fill="#FFFFFF" points="14.6358521 0.1064 14.6358521 0.6216 13.6414791 0.6216 13.6414791 3.7216 13.1117363 3.7216 13.1117363 0.6272 12.1197749 0.6272 12.1197749 0.1064"></polygon>
                    <polygon id="Path" fill="#FFFFFF" points="11.6864952 3.72 11.1125402 3.72 11.1125402 0.1096 11.6864952 0.1096"></polygon>
                </g>
                <rect id="Rectangle" stroke="#FFFFFF" fill-rule="nonzero" x="0" y="0" width="85" height="23" rx="3"></rect>
                <g id="Group-6" transform="translate(8.000000, 4.000000)">
                    <g id="Group-5">
                        <path d="M7.16944844,8.122 L0.118429257,15.465 C0.0674545979,15.3636829 0.0415114155,15.251521 0.042793765,15.138 L0.0905635492,0.763 L7.16944844,8.122 Z" id="Path" fill="#FFFFFF"></path>
                        <path d="M7.68695444,7.577 L0.477697842,0.086 C0.65535783,0.0129068569 0.856996356,0.028863344 1.02107914,0.129 L9.79678657,5.377 L7.68695444,7.577 Z" id="Path" fill="#FFFFFF"></path>
                        <path d="M13.3934532,8.556 L10.3451439,10.345 L8.17559952,8.089 L10.4376978,5.763 L10.4376978,5.763 L13.3974341,7.534 C13.5771563,7.641282 13.6869864,7.83609354 13.6861683,8.04614335 C13.6853501,8.25619316 13.5740057,8.45013488 13.3934532,8.556 L13.3934532,8.556 Z" id="Path" fill="#FFFFFF"></path>
                        <path d="M9.68233813,10.734 L7.65411271,8.625" id="Path"></path>
                    </g>
                    <path d="M7.65411271,8.625 L9.68233813,10.734 L1.11761391,15.76 C0.970718364,15.8478452 0.796959368,15.8787819 0.628968825,15.847 L7.65411271,8.625 Z" id="Path" fill="#FFFFFF"></path>
                </g>
                <path d="M13.3451439,14.345 L11.1755995,12.088" id="Path"></path>
                <path d="M10.6879496,11.581 L3.47769784,4.086" id="Path"></path>
                <path d="M13.3451439,14.345 L11.1755995,12.088" id="Path"></path>
                <path d="M10.6879496,11.581 L3.47769784,4.086" id="Path"></path>
                <path d="M10.6541127,12.625 L3.62996403,19.847" id="Path"></path>
                <polyline id="Path" points="11.1755995 12.088 13.4376978 9.763 13.438693 9.763"></polyline>
                <path d="M10.1694484,12.121 L3.11842926,19.465" id="Path"></path>
                <path d="M12.7997722,9.381 L10.6879496,11.581" id="Path"></path>
            </g>
        </g>
    </g>
</svg>