<?xml version="1.0" encoding="UTF-8"?>
<svg width="49px" height="57px" viewBox="0 0 49 57" version="1.1" xmlns="http://www.w3.org/2000/svg" xmlns:xlink="http://www.w3.org/1999/xlink">
    <!-- Generator: Sketch 53.1 (72631) - https://sketchapp.com -->
    <title>Insurance</title>
    <desc>Created with Sketch.</desc>
    <g id="Page-1" stroke="none" stroke-width="1" fill="none" fill-rule="evenodd">
        <g id="Million-all-services" transform="translate(-1028.000000, -555.000000)" stroke="#000000" stroke-width="0.9">
            <g id="Insurance" transform="translate(1029.000000, 556.000000)">
                <path d="M0.0384860509,8.37208232 C6.23748268,8.00633263 10.652406,7.35138204 13.283256,6.40723056 C15.9141059,5.46307909 19.2753687,3.32733557 23.3670442,0 C27.7829548,3.2636389 31.3950795,5.39938243 34.2034183,6.40723056 C37.0117572,7.4150787 41.1758185,8.07002929 46.6956023,8.37208232 C46.6956023,11.399853 45.9789439,18.9499085 44.5456272,31.0222488 C43.1123104,43.0945892 36.1048982,51.0627021 23.5233905,54.9265877 C11.0347971,51.3597265 3.94305887,43.3916136 2.24817588,31.0222488 C0.553292878,18.6528841 -0.183270397,11.1028286 0.0384860509,8.37208232 Z" id="Path-14"></path>
                <path d="M7.25758711,13.9933911 C11.5771762,13.7365721 14.6535861,13.2766845 16.4868167,12.6137283 C18.3200474,11.9507721 20.6622448,10.4511141 23.5134089,8.1147541 C26.5905068,10.4063881 29.10751,11.9060462 31.0644186,12.6137283 C33.0213272,13.3214105 35.9229312,13.7812981 39.7692308,13.9933911 C39.7692308,16.1194052 39.2698484,21.4208384 38.2710836,29.8976909 C37.2723189,38.3745433 32.353094,44.2323875 23.5134089,47.4712234 C14.883729,44.4409496 9.97837421,38.5831054 8.79734468,29.8976909 C7.61631515,21.2122763 7.10306263,15.9108431 7.25758711,13.9933911 Z" id="Path-14-Copy"></path>
            </g>
        </g>
    </g>
</svg>