<?xml version="1.0" encoding="UTF-8"?>
<svg width="43px" height="51px" viewBox="0 0 43 51" version="1.1" xmlns="http://www.w3.org/2000/svg" xmlns:xlink="http://www.w3.org/1999/xlink">
    <!-- Generator: Sketch 53.1 (72631) - https://sketchapp.com -->
    <title>Internet Services</title>
    <desc>Created with Sketch.</desc>
    <g id="Page-1" stroke="none" stroke-width="1" fill="none" fill-rule="evenodd">
        <g id="Million-all-services" transform="translate(-824.000000, -752.000000)" stroke="#000000" stroke-width="0.9">
            <g id="Internet-Services" transform="translate(825.000000, 753.000000)">
                <ellipse id="Oval-9" cx="20.5501836" cy="24.2440726" rx="2.63463892" ry="2.57915666"></ellipse>
                <path d="M5.22314844,35.6505102 L36.0483734,35.6505102 C36.4901831,35.6505102 36.8847071,35.9271352 37.0352837,36.3424934 L41.2559358,47.9849595 C41.4535305,48.530015 41.1718578,49.1320519 40.6268024,49.3296466 C40.5121018,49.3712281 40.3910306,49.3924964 40.2690255,49.3924964 L1.05797317,49.3924964 C0.478206729,49.3924964 0.0082131681,48.9225028 0.0082131681,48.3427364 C0.0082131681,48.2222183 0.0289662167,48.1026003 0.0695626364,47.9891255 L4.23473791,36.3466593 C4.38410805,35.929141 4.77971529,35.6505102 5.22314844,35.6505102 Z" id="Rectangle-6"></path>
                <path d="M20.5643181,26.9679478 L20.5643181,40.1387351" id="Path-12"></path>
                <path d="M14.753978,16.961194 C16.6007285,15.2825829 18.7084396,14.4432773 21.0771114,14.4432773 C23.4457831,14.4432773 25.5534943,15.2825829 27.4002448,16.961194" id="Path-13"></path>
                <path d="M9.48470012,11.9507642 C12.8704094,8.79801383 16.7345465,7.22163866 21.0771114,7.22163866 C25.4196762,7.22163866 29.2838133,8.79801383 32.6695226,11.9507642" id="Path-13-Copy"></path>
                <path d="M4.21542228,6.94339158 C8.9861945,2.31446386 14.4311149,1.28227619e-16 20.5501836,0 C26.6692523,0 32.1141727,2.31446386 36.8849449,6.94339158" id="Path-13-Copy-2"></path>
            </g>
        </g>
    </g>
</svg>