<?xml version="1.0" encoding="UTF-8"?>
<svg width="61px" height="38px" viewBox="0 0 61 38" version="1.1" xmlns="http://www.w3.org/2000/svg" xmlns:xlink="http://www.w3.org/1999/xlink">
    <!-- Generator: Sketch 53.1 (72631) - https://sketchapp.com -->
    <title>Other Utilities</title>
    <desc>Created with Sketch.</desc>
    <g id="Page-1" stroke="none" stroke-width="1" fill="none" fill-rule="evenodd">
        <g id="Million-all-services" transform="translate(-405.000000, -955.000000)" stroke="#000000" stroke-width="0.9">
            <g id="Other-Utilities" transform="translate(406.000000, 956.000000)">
                <rect id="Rectangle-12" x="0" y="0" width="13.6153846" height="13.5" rx="0.9"></rect>
                <path d="M0.9,22.5 L12.7153846,22.5 C13.2124409,22.5 13.6153846,22.9029437 13.6153846,23.4 L13.6153846,35.1 C13.6153846,35.5970563 13.2124409,36 12.7153846,36 L0.9,36 C0.402943725,36 -4.94239675e-16,35.5970563 -5.55111512e-16,35.1 L-1.11022302e-16,23.4 C-1.7189414e-16,22.9029437 0.402943725,22.5 0.9,22.5 Z" id="Rectangle-12-Copy-3"></path>
                <rect id="Rectangle-12-Copy" x="22.6923077" y="0" width="13.6153846" height="13.5" rx="0.9"></rect>
                <path d="M23.5923077,22.5 L35.4076923,22.5 C35.9047486,22.5 36.3076923,22.9029437 36.3076923,23.4 L36.3076923,35.1 C36.3076923,35.5970563 35.9047486,36 35.4076923,36 L23.5923077,36 C23.0952514,36 22.6923077,35.5970563 22.6923077,35.1 L22.6923077,23.4 C22.6923077,22.9029437 23.0952514,22.5 23.5923077,22.5 Z" id="Rectangle-12-Copy-4"></path>
                <rect id="Rectangle-12-Copy-2" x="45.3846154" y="0" width="13.6153846" height="13.5" rx="0.9"></rect>
                <path d="M46.2846154,22.5 L58.1,22.5 C58.5970563,22.5 59,22.9029437 59,23.4 L59,35.1 C59,35.5970563 58.5970563,36 58.1,36 L46.2846154,36 C45.7875591,36 45.3846154,35.5970563 45.3846154,35.1 L45.3846154,23.4 C45.3846154,22.9029437 45.7875591,22.5 46.2846154,22.5 Z" id="Rectangle-12-Copy-5"></path>
            </g>
        </g>
    </g>
</svg>