<?xml version="1.0" encoding="UTF-8"?>
<svg width="53px" height="44px" viewBox="0 0 53 44" version="1.1" xmlns="http://www.w3.org/2000/svg" xmlns:xlink="http://www.w3.org/1999/xlink">
    <!-- Generator: Sketch 53.1 (72631) - https://sketchapp.com -->
    <title>Penalties</title>
    <desc>Created with Sketch.</desc>
    <g id="Page-1" stroke="none" stroke-width="1" fill="none" fill-rule="evenodd">
        <g id="Million-all-services" transform="translate(-202.000000, -756.000000)" stroke="#000000">
            <g id="Penalties" transform="translate(202.000000, 755.000000)">
                <path d="M7.18644068,19.8125 L20.6610169,19.8125" id="Path-5" stroke-width="0.72"></path>
                <path d="M7.18644068,23.3958333 L15.6850987,23.3958333" id="Path-5-Copy" stroke-width="0.72"></path>
                <path d="M7.18644068,26.9791667 L24.6606119,26.9791667" id="Path-5-Copy-2" stroke-width="0.72"></path>
                <path d="M7.18644068,34.1458333 L27.4032951,34.1458333" id="Path-5-Copy-4" stroke-width="0.72"></path>
                <path d="M7.18644068,30.5625 L20.2196061,30.5625" id="Path-5-Copy-3" stroke-width="0.72"></path>
                <path d="M10.7805085,3.02458333 L10.7805085,16.6454252 C10.7805085,17.7110062 10.7805085,17.7110062 10.7805085,18.087579 C10.7805085,18.2053051 10.7805085,18.2053051 10.7805085,18.2881817 C10.7805085,18.4457467 10.7805085,18.4457467 10.7805085,18.8427976 C10.7805085,32.0193717 10.7805085,32.0193717 10.7805085,52.7254167 C10.7805085,53.3473795 11.2866049,53.8520833 11.9115254,53.8520833 L41.0884746,53.8520833 C41.7133951,53.8520833 42.2194915,53.3473795 42.2194915,52.7254167 L42.2194915,3.02458333 C42.2194915,2.4026205 41.7133951,1.89791667 41.0884746,1.89791667 L11.9115254,1.89791667 C11.2866049,1.89791667 10.7805085,2.4026205 10.7805085,3.02458333 Z" id="Rectangle-5" stroke-width="0.9" transform="translate(26.500000, 27.875000) rotate(-270.000000) translate(-26.500000, -27.875000) "></path>
                <g id="Group-3" transform="translate(37.157295, 17.835368) rotate(-330.000000) translate(-37.157295, -17.835368) translate(34.657295, -0.164632)" stroke-width="0.9">
                    <path d="M2.24576271,0 L2.24576271,0 C3.48606321,-2.27839505e-16 4.49152542,1.00546221 4.49152542,2.24576271 L4.49152542,30.4583333 C2.99435028,33.7236633 2.24576271,35.3563283 2.24576271,35.3563283 C2.24576271,35.3563283 1.49717514,33.7236633 -2.70969687e-16,30.4583333 L-4.4408921e-16,2.24576271 C-5.95982213e-16,1.00546221 1.00546221,2.27839505e-16 2.24576271,0 Z" id="Rectangle-8"></path>
                    <path d="M0.00570213189,6.09608459 L4.47587959,6.09608459" id="Path-17"></path>
                </g>
            </g>
        </g>
    </g>
</svg>