<?xml version="1.0" encoding="UTF-8"?>
<svg width="46px" height="46px" viewBox="0 0 46 46" version="1.1" xmlns="http://www.w3.org/2000/svg" xmlns:xlink="http://www.w3.org/1999/xlink">
    <!-- Generator: Sketch 53.1 (72631) - https://sketchapp.com -->
    <title>Telephone</title>
    <desc>Created with Sketch.</desc>
    <g id="Page-1" stroke="none" stroke-width="1" fill="none" fill-rule="evenodd">
        <g id="Million-all-services" transform="translate(-1029.000000, -755.000000)" fill="#000000" fill-rule="nonzero">
            <path d="M1074.96859,792.860849 C1074.82235,791.75548 1074.18422,790.802416 1073.21804,790.246155 L1061.86963,783.712202 C1060.47972,782.911938 1058.71644,783.144913 1057.58196,784.279292 L1055.34667,786.514568 C1054.75186,787.109476 1053.81082,787.162132 1053.15818,786.636868 C1051.396,785.218944 1049.66095,783.658454 1048.0013,781.998712 C1046.34165,780.33907 1044.78115,778.604121 1043.36312,776.84185 C1042.83785,776.18912 1042.89041,775.248176 1043.48542,774.653268 L1045.72061,772.417992 C1046.85499,771.283713 1047.08827,769.520647 1046.2878,768.130443 L1039.75382,756.782087 C1039.19745,755.815809 1038.24448,755.177783 1037.13911,755.03154 C1036.03364,754.884998 1034.94744,755.253686 1034.15899,756.042128 L1030.79091,759.410292 C1028.44018,761.761113 1028.40243,766.06118 1030.68461,771.518576 C1032.87906,776.766046 1036.97429,782.542654 1042.21572,787.784261 C1047.45735,793.02577 1053.23399,797.120978 1058.48158,799.315421 C1061.16792,800.438772 1063.57359,801.000099 1065.60471,801 C1067.69981,801 1069.39622,800.402608 1070.58992,799.209017 L1073.958,795.840853 C1074.74634,795.052411 1075.11474,793.966217 1074.96859,792.860849 L1074.96859,792.860849 Z M1072.65947,795.823039 L1069.94351,798.663764 C1068.07592,800.531345 1063.88266,800.883952 1059.09039,798.879864 C1054.01755,796.758542 1047.63779,792.262519 1042.53018,787.155034 C1037.42257,782.047449 1033.7036,776.486147 1031.28635,771.123319 C1028.8691,765.760492 1029.30116,761.760618 1031.16875,759.892937 L1035.00819,756.335851 L1035.00951,756.338038 C1035.36344,756.07522 1035.93712,755.420316 1037.18555,755.714222 C1037.82287,755.864261 1038.56414,756.355409 1038.88722,756.916638 L1045.80597,768.733398 C1046.20161,769.436214 1046.41388,770.650452 1045.53027,771.50354 L1044.69785,772.311258 L1044.70959,772.330627 C1043.87036,773.160125 1043.44777,773.577585 1043.44183,773.583008 C1041.9659,774.93158 1041.9659,775.828659 1042.62422,776.865402 C1043.86786,778.823905 1047.58747,782.557732 1047.59619,782.566406 C1049.28773,784.248814 1050.9412,785.799815 1052.73566,787.243774 C1053.98251,788.247011 1055.11775,787.892885 1056.25214,786.758606 L1057.37396,785.4656 L1057.37592,785.466925 L1058.53174,784.335612 C1059.27669,783.712677 1060.62546,783.793816 1061.43268,784.258575 L1072.80386,791.036224 C1073.35248,791.568695 1074.14999,792.023957 1074.14999,793.365784 C1074.14999,794.72431 1072.87164,795.508617 1072.66806,795.828857 L1072.65947,795.823039 Z" id="Telephone"></path>
        </g>
    </g>
</svg>